# Blender 4.5.3 LTS
# www.blender.org
mtllib baseball.mtl
o 球体.001
v 0.000000 2.637975 -0.397611
v 0.000000 2.403579 -1.157503
v 0.000000 1.663329 -2.085748
v 0.000000 0.974647 -2.483359
v 0.000000 -0.199363 -2.660312
v 0.000000 -0.593635 -2.600885
v 0.000000 -0.974647 -2.483359
v 0.000000 -1.663329 -2.085748
v 0.000000 -2.204216 -1.502810
v 0.000000 -2.403579 -1.157503
v 0.000000 -2.549250 -0.786340
v 0.077570 2.637975 -0.389971
v 0.153407 2.549250 -0.771230
v 0.225818 2.403579 -1.135262
v 0.293184 2.204216 -1.473933
v 0.354000 1.955615 -1.779680
v 0.406909 1.663329 -2.045671
v 0.450729 1.333886 -2.265965
v 0.484479 0.974647 -2.435642
v 0.507408 0.593635 -2.550910
v 0.519001 0.199363 -2.609195
v 0.519001 -0.199363 -2.609195
v 0.507408 -0.593635 -2.550910
v 0.484479 -0.974647 -2.435642
v 0.450729 -1.333886 -2.265965
v 0.406909 -1.663329 -2.045671
v 0.354000 -1.955615 -1.779680
v 0.293184 -2.204216 -1.473933
v 0.225818 -2.403579 -1.135262
v 0.153407 -2.549250 -0.771230
v 0.077570 -2.637975 -0.389971
v 0.152159 2.637975 -0.367344
v 0.300919 2.549250 -0.726483
v 0.442957 2.403579 -1.069393
v 0.575100 2.204216 -1.388415
v 0.694397 1.955615 -1.676422
v 0.798181 1.663329 -1.926980
v 0.884136 1.333886 -2.134492
v 0.950340 0.974647 -2.294324
v 0.995316 0.593635 -2.402904
v 1.018057 0.199363 -2.457808
v 1.018057 -0.199363 -2.457808
v 0.995316 -0.593635 -2.402904
v 0.950340 -0.974647 -2.294324
v 0.884136 -1.333886 -2.134492
v 0.798181 -1.663329 -1.926980
v 0.694397 -1.955615 -1.676422
v 0.575100 -2.204216 -1.388415
v 0.442957 -2.403579 -1.069393
v 0.300919 -2.549250 -0.726483
v 0.152159 -2.637975 -0.367344
v 0.220901 2.637975 -0.330601
v 0.436867 2.549250 -0.653817
v 0.643074 2.403579 -0.962428
v 0.834916 2.204216 -1.249540
v 1.008108 1.955615 -1.508739
v 1.158780 1.663329 -1.734236
v 1.283566 1.333886 -1.920992
v 1.379680 0.974647 -2.064837
v 1.444974 0.593635 -2.162557
v 1.477990 0.199363 -2.211968
v 1.477990 -0.199363 -2.211968
v 1.444974 -0.593635 -2.162557
v 1.379680 -0.974647 -2.064837
v 1.283566 -1.333886 -1.920992
v 1.158780 -1.663329 -1.734236
v 1.008108 -1.955615 -1.508739
v 0.834916 -2.204216 -1.249540
v 0.643074 -2.403579 -0.962428
v 0.436867 -2.549250 -0.653817
v 0.220901 -2.637975 -0.330601
v 0.281153 2.637975 -0.281153
v 0.556026 2.549250 -0.556026
v 0.818478 2.403579 -0.818478
v 1.062647 2.204216 -1.062647
v 1.283077 1.955615 -1.283077
v 1.474846 1.663329 -1.474846
v 1.633670 1.333886 -1.633670
v 1.756000 0.974647 -1.756000
v 1.839103 0.593635 -1.839103
v 1.881125 0.199363 -1.881124
v 1.881125 -0.199363 -1.881124
v 1.839103 -0.593635 -1.839103
v 1.756000 -0.974647 -1.756000
v 1.633670 -1.333886 -1.633670
v 1.474846 -1.663329 -1.474846
v 1.283077 -1.955615 -1.283077
v 1.062647 -2.204216 -1.062647
v 0.818478 -2.403579 -0.818478
v 0.556026 -2.549250 -0.556026
v 0.281153 -2.637975 -0.281153
v 0.330601 2.637975 -0.220901
v 0.653817 2.549250 -0.436867
v 0.962428 2.403579 -0.643074
v 1.249540 2.204216 -0.834916
v 1.508739 1.955615 -1.008107
v 1.734236 1.663329 -1.158779
v 1.920992 1.333886 -1.283566
v 2.064837 0.974647 -1.379680
v 2.162557 0.593635 -1.444974
v 2.211968 0.199363 -1.477990
v 2.211968 -0.199363 -1.477990
v 2.162557 -0.593635 -1.444974
v 2.064837 -0.974647 -1.379680
v 1.920992 -1.333886 -1.283566
v 1.734236 -1.663329 -1.158779
v 1.508739 -1.955615 -1.008107
v 1.249540 -2.204216 -0.834916
v 0.962428 -2.403579 -0.643074
v 0.653817 -2.549250 -0.436867
v 0.330601 -2.637975 -0.220901
v 0.367344 2.637975 -0.152159
v 0.726483 2.549250 -0.300919
v 1.069393 2.403579 -0.442957
v 1.388415 2.204216 -0.575100
v 1.676422 1.955615 -0.694396
v 1.926980 1.663329 -0.798181
v 2.134492 1.333886 -0.884136
v 2.294324 0.974647 -0.950340
v 2.402904 0.593635 -0.995315
v 2.457808 0.199363 -1.018057
v 2.457808 -0.199363 -1.018057
v 2.402904 -0.593635 -0.995315
v 2.294324 -0.974647 -0.950340
v 2.134492 -1.333886 -0.884136
v 1.926980 -1.663329 -0.798181
v 1.676422 -1.955615 -0.694396
v 1.388415 -2.204216 -0.575100
v 1.069393 -2.403579 -0.442957
v 0.726483 -2.549250 -0.300919
v 0.367344 -2.637975 -0.152159
v 0.389971 2.637975 -0.077570
v 0.771230 2.549250 -0.153407
v 1.135262 2.403579 -0.225818
v 1.473933 2.204216 -0.293183
v 1.779680 1.955615 -0.354000
v 2.045671 1.663329 -0.406909
v 2.265965 1.333886 -0.450728
v 2.435641 0.974647 -0.484479
v 2.550909 0.593635 -0.507407
v 2.609195 0.199363 -0.519001
v 2.609195 -0.199363 -0.519001
v 2.550909 -0.593635 -0.507407
v 2.435641 -0.974647 -0.484479
v 2.265965 -1.333886 -0.450728
v 2.045671 -1.663329 -0.406909
v 1.779680 -1.955615 -0.354000
v 1.473933 -2.204216 -0.293183
v 1.135262 -2.403579 -0.225818
v 0.771230 -2.549250 -0.153407
v 0.389971 -2.637975 -0.077570
v 0.397611 2.637975 0.000000
v 0.786339 2.549250 0.000000
v 1.157503 2.403579 0.000000
v 1.502809 2.204216 0.000000
v 1.814546 1.955615 0.000000
v 2.085747 1.663329 0.000000
v 2.310358 1.333886 0.000000
v 2.483358 0.974647 0.000000
v 2.600884 0.593635 0.000000
v 2.660311 0.199363 0.000000
v 2.660311 -0.199363 0.000000
v 2.600884 -0.593635 0.000000
v 2.483358 -0.974647 0.000000
v 2.310358 -1.333886 0.000000
v 2.085747 -1.663329 0.000000
v 1.814546 -1.955615 0.000000
v 1.502809 -2.204216 0.000000
v 1.157503 -2.403579 0.000000
v 0.786339 -2.549250 0.000000
v 0.397611 -2.637975 0.000000
v 0.389971 2.637975 0.077570
v 0.771230 2.549250 0.153407
v 1.135261 2.403579 0.225818
v 1.473933 2.204216 0.293184
v 1.779680 1.955615 0.354000
v 2.045671 1.663329 0.406909
v 2.265965 1.333886 0.450729
v 2.435641 0.974647 0.484479
v 2.550909 0.593635 0.507407
v 2.609194 0.199363 0.519001
v 2.609194 -0.199363 0.519001
v 2.550909 -0.593635 0.507407
v 2.435641 -0.974647 0.484479
v 2.265965 -1.333886 0.450729
v 2.045671 -1.663329 0.406909
v 1.779680 -1.955615 0.354000
v 1.473933 -2.204216 0.293184
v 1.135261 -2.403579 0.225818
v 0.771230 -2.549250 0.153407
v 0.389971 -2.637975 0.077570
v 0.367344 2.637975 0.152159
v 0.726483 2.549250 0.300919
v 1.069393 2.403579 0.442957
v 1.388415 2.204216 0.575100
v 1.676421 1.955615 0.694397
v 1.926979 1.663329 0.798181
v 2.134492 1.333886 0.884136
v 2.294323 0.974647 0.950340
v 2.402904 0.593635 0.995315
v 2.457807 0.199363 1.018057
v 2.457807 -0.199363 1.018057
v 2.402904 -0.593635 0.995315
v 2.294323 -0.974647 0.950340
v 2.134492 -1.333886 0.884136
v 1.926979 -1.663329 0.798181
v 1.676421 -1.955615 0.694397
v 1.388415 -2.204216 0.575100
v 1.069393 -2.403579 0.442957
v 0.726483 -2.549250 0.300919
v 0.367344 -2.637975 0.152159
v 0.330601 2.637975 0.220901
v 0.653817 2.549250 0.436867
v 0.962428 2.403579 0.643074
v 1.249540 2.204216 0.834916
v 1.508739 1.955615 1.008108
v 1.734235 1.663329 1.158780
v 1.920992 1.333886 1.283566
v 2.064836 0.974647 1.379680
v 2.162556 0.593635 1.444974
v 2.211968 0.199363 1.477990
v 2.211968 -0.199363 1.477990
v 2.162556 -0.593635 1.444974
v 2.064836 -0.974647 1.379680
v 1.920992 -1.333886 1.283566
v 1.734235 -1.663329 1.158780
v 1.508739 -1.955615 1.008108
v 1.249540 -2.204216 0.834916
v 0.962428 -2.403579 0.643074
v 0.653817 -2.549250 0.436867
v 0.330601 -2.637975 0.220901
v 0.281153 2.637975 0.281153
v 0.556026 2.549250 0.556026
v 0.818478 2.403579 0.818478
v 1.062646 2.204216 1.062647
v 1.283077 1.955615 1.283077
v 1.474846 1.663329 1.474846
v 1.633669 1.333886 1.633669
v 1.755999 0.974647 1.755999
v 1.839103 0.593635 1.839103
v 1.881124 0.199363 1.881124
v 1.881124 -0.199363 1.881124
v 1.839103 -0.593635 1.839103
v 1.755999 -0.974647 1.755999
v 1.633669 -1.333886 1.633669
v 1.474846 -1.663329 1.474846
v 1.283077 -1.955615 1.283077
v 1.062646 -2.204216 1.062647
v 0.818478 -2.403579 0.818478
v 0.556026 -2.549250 0.556026
v 0.281153 -2.637975 0.281153
v 0.220901 2.637975 0.330601
v 0.436867 2.549250 0.653817
v 0.643074 2.403579 0.962428
v 0.834916 2.204216 1.249540
v 1.008107 1.955615 1.508739
v 1.158779 1.663329 1.734236
v 1.283566 1.333886 1.920992
v 1.379679 0.974647 2.064837
v 1.444974 0.593635 2.162556
v 1.477990 0.199363 2.211968
v 1.477990 -0.199363 2.211968
v 1.444974 -0.593635 2.162556
v 1.379679 -0.974647 2.064837
v 1.283566 -1.333886 1.920992
v 1.158779 -1.663329 1.734236
v 1.008107 -1.955615 1.508739
v 0.834916 -2.204216 1.249540
v 0.643074 -2.403579 0.962428
v 0.436867 -2.549250 0.653817
v 0.220901 -2.637975 0.330601
v 0.152159 2.637975 0.367344
v 0.300919 2.549250 0.726483
v 0.442957 2.403579 1.069393
v 0.575100 2.204216 1.388415
v 0.694396 1.955615 1.676421
v 0.798180 1.663329 1.926979
v 0.884135 1.333886 2.134492
v 0.950339 0.974647 2.294323
v 0.995315 0.593635 2.402904
v 1.018057 0.199363 2.457807
v 1.018057 -0.199363 2.457807
v 0.995315 -0.593635 2.402904
v 0.950339 -0.974647 2.294323
v 0.884135 -1.333886 2.134492
v 0.798180 -1.663329 1.926979
v 0.694396 -1.955615 1.676421
v 0.575100 -2.204216 1.388415
v 0.442957 -2.403579 1.069393
v 0.300919 -2.549250 0.726483
v 0.152159 -2.637975 0.367344
v 0.077570 2.637975 0.389971
v 0.153407 2.549250 0.771230
v 0.225817 2.403579 1.135261
v 0.293183 2.204216 1.473933
v 0.354000 1.955615 1.779679
v 0.406909 1.663329 2.045670
v 0.450728 1.333886 2.265965
v 0.484478 0.974647 2.435640
v 0.507407 0.593635 2.550909
v 0.519001 0.199363 2.609194
v 0.519001 -0.199363 2.609194
v 0.507407 -0.593635 2.550909
v 0.484478 -0.974647 2.435640
v 0.450728 -1.333886 2.265965
v 0.406909 -1.663329 2.045670
v 0.354000 -1.955615 1.779679
v 0.293183 -2.204216 1.473933
v 0.225817 -2.403579 1.135261
v 0.153407 -2.549250 0.771230
v 0.077570 -2.637975 0.389971
v -0.000000 2.637975 0.397611
v -0.000000 2.549250 0.786339
v -0.000000 2.403579 1.157502
v -0.000000 2.204216 1.502809
v -0.000000 1.955615 1.814545
v -0.000001 1.663329 2.085747
v -0.000000 1.333886 2.310357
v -0.000001 0.974647 2.483357
v -0.000000 0.593635 2.600884
v -0.000000 0.199363 2.660311
v -0.000000 -0.199363 2.660311
v -0.000000 -0.593635 2.600884
v -0.000001 -0.974647 2.483357
v -0.000000 -1.333886 2.310357
v -0.000001 -1.663329 2.085747
v -0.000000 -1.955615 1.814545
v -0.000000 -2.204216 1.502809
v -0.000000 -2.403579 1.157502
v -0.000000 -2.549250 0.786339
v -0.000000 -2.637975 0.397611
v -0.077570 2.637975 0.389971
v -0.153407 2.549250 0.771230
v -0.225818 2.403579 1.135261
v -0.293184 2.204216 1.473933
v -0.354000 1.955615 1.779679
v -0.406910 1.663329 2.045670
v -0.450729 1.333886 2.265964
v -0.484480 0.974647 2.435640
v -0.507408 0.593635 2.550909
v -0.519001 0.199363 2.609194
v -0.519001 -0.199363 2.609194
v -0.507408 -0.593635 2.550909
v -0.484480 -0.974647 2.435640
v -0.450729 -1.333886 2.265964
v -0.406910 -1.663329 2.045670
v -0.354000 -1.955615 1.779679
v -0.293184 -2.204216 1.473933
v -0.225818 -2.403579 1.135261
v -0.153407 -2.549250 0.771230
v -0.077570 -2.637975 0.389971
v -0.152159 2.637975 0.367344
v -0.300919 2.549250 0.726483
v -0.442957 2.403579 1.069393
v -0.575100 2.204216 1.388415
v -0.694396 1.955615 1.676421
v -0.798181 1.663329 1.926979
v -0.884136 1.333886 2.134492
v -0.950340 0.974647 2.294322
v -0.995316 0.593635 2.402904
v -1.018057 0.199363 2.457807
v -1.018057 -0.199363 2.457807
v -0.995316 -0.593635 2.402904
v -0.950340 -0.974647 2.294322
v -0.884136 -1.333886 2.134492
v -0.798181 -1.663329 1.926979
v -0.694396 -1.955615 1.676421
v -0.575100 -2.204216 1.388415
v -0.442957 -2.403579 1.069393
v -0.300919 -2.549250 0.726483
v -0.152159 -2.637975 0.367344
v -0.220901 2.637975 0.330601
v -0.436867 2.549250 0.653817
v -0.643074 2.403579 0.962428
v -0.834916 2.204216 1.249540
v -1.008107 1.955615 1.508739
v -1.158779 1.663329 1.734235
v -1.283566 1.333886 1.920992
v -1.379680 0.974647 2.064836
v -1.444974 0.593635 2.162556
v -1.477990 0.199363 2.211967
v -1.477990 -0.199363 2.211967
v -1.444974 -0.593635 2.162556
v -1.379680 -0.974647 2.064836
v -1.283566 -1.333886 1.920992
v -1.158779 -1.663329 1.734235
v -1.008107 -1.955615 1.508739
v -0.834916 -2.204216 1.249540
v -0.643074 -2.403579 0.962428
v -0.436867 -2.549250 0.653817
v -0.220901 -2.637975 0.330601
v 0.000000 -2.667772 0.000000
v 0.000000 2.667772 0.000000
v -0.281153 2.637975 0.281153
v -0.556026 2.549250 0.556026
v -0.818478 2.403579 0.818478
v -1.062647 2.204216 1.062646
v -1.283077 1.955615 1.283077
v -1.474846 1.663329 1.474845
v -1.633669 1.333886 1.633669
v -1.755999 0.974647 1.755998
v -1.839103 0.593635 1.839103
v -1.881124 0.199363 1.881124
v -1.881124 -0.199363 1.881124
v -1.839103 -0.593635 1.839103
v -1.755999 -0.974647 1.755998
v -1.633669 -1.333886 1.633669
v -1.474846 -1.663329 1.474845
v -1.283077 -1.955615 1.283077
v -1.062647 -2.204216 1.062646
v -0.818478 -2.403579 0.818478
v -0.556026 -2.549250 0.556026
v -0.281153 -2.637975 0.281153
v -0.330601 2.637975 0.220901
v -0.653817 2.549250 0.436866
v -0.962428 2.403579 0.643074
v -1.249540 2.204216 0.834916
v -1.508739 1.955615 1.008107
v -1.734235 1.663329 1.158778
v -1.920992 1.333886 1.283565
v -2.064836 0.974647 1.379679
v -2.162556 0.593635 1.444973
v -2.211967 0.199363 1.477989
v -2.211967 -0.199363 1.477989
v -2.162556 -0.593635 1.444973
v -2.064836 -0.974647 1.379679
v -1.920992 -1.333886 1.283565
v -1.734235 -1.663329 1.158778
v -1.508739 -1.955615 1.008107
v -1.249540 -2.204216 0.834916
v -0.962428 -2.403579 0.643074
v -0.653817 -2.549250 0.436866
v -0.330601 -2.637975 0.220901
v -0.367344 2.637975 0.152159
v -0.726483 2.549250 0.300919
v -1.069392 2.403579 0.442957
v -1.388415 2.204216 0.575100
v -1.676421 1.955615 0.694396
v -1.926979 1.663329 0.798180
v -2.134492 1.333886 0.884135
v -2.294322 0.974647 0.950339
v -2.402904 0.593635 0.995315
v -2.457807 0.199363 1.018057
v -2.457807 -0.199363 1.018057
v -2.402904 -0.593635 0.995315
v -2.294322 -0.974647 0.950339
v -2.134492 -1.333886 0.884135
v -1.926979 -1.663329 0.798180
v -1.676421 -1.955615 0.694396
v -1.388415 -2.204216 0.575100
v -1.069392 -2.403579 0.442957
v -0.726483 -2.549250 0.300919
v -0.367344 -2.637975 0.152159
v -0.389971 2.637975 0.077570
v -0.771230 2.549250 0.153407
v -1.135261 2.403579 0.225817
v -1.473933 2.204216 0.293183
v -1.779679 1.955615 0.354000
v -2.045670 1.663329 0.406908
v -2.265964 1.333886 0.450728
v -2.435640 0.974647 0.484478
v -2.550909 0.593635 0.507407
v -2.609194 0.199363 0.519001
v -2.609194 -0.199363 0.519001
v -2.550909 -0.593635 0.507407
v -2.435640 -0.974647 0.484478
v -2.265964 -1.333886 0.450728
v -2.045670 -1.663329 0.406908
v -1.779679 -1.955615 0.354000
v -1.473933 -2.204216 0.293183
v -1.135261 -2.403579 0.225817
v -0.771230 -2.549250 0.153407
v -0.389971 -2.637975 0.077570
v -0.397611 2.637975 -0.000000
v -0.786339 2.549250 -0.000000
v -1.157502 2.403579 -0.000000
v -1.502809 2.204216 -0.000000
v -1.814545 1.955615 -0.000000
v -2.085746 1.663329 -0.000001
v -2.310357 1.333886 -0.000000
v -2.483356 0.974647 -0.000001
v -2.600883 0.593635 -0.000000
v -2.660311 0.199363 -0.000000
v -2.660311 -0.199363 -0.000000
v -2.600883 -0.593635 -0.000000
v -2.483356 -0.974647 -0.000001
v -2.310357 -1.333886 -0.000000
v -2.085746 -1.663329 -0.000001
v -1.814545 -1.955615 -0.000000
v -1.502809 -2.204216 -0.000000
v -1.157502 -2.403579 -0.000000
v -0.786339 -2.549250 -0.000000
v -0.397611 -2.637975 -0.000000
v -0.389971 2.637975 -0.077570
v -0.771230 2.549250 -0.153407
v -1.135261 2.403579 -0.225818
v -1.473933 2.204216 -0.293184
v -1.779679 1.955615 -0.354000
v -2.045669 1.663329 -0.406910
v -2.265964 1.333886 -0.450729
v -2.435639 0.974647 -0.484479
v -2.550908 0.593635 -0.507408
v -2.609194 0.199363 -0.519001
v -2.609194 -0.199363 -0.519001
v -2.550908 -0.593635 -0.507408
v -2.435639 -0.974647 -0.484479
v -2.265964 -1.333886 -0.450729
v -2.045669 -1.663329 -0.406910
v -1.779679 -1.955615 -0.354000
v -1.473933 -2.204216 -0.293184
v -1.135261 -2.403579 -0.225818
v -0.771230 -2.549250 -0.153407
v -0.389971 -2.637975 -0.077570
v -0.367344 2.637975 -0.152159
v -0.726482 2.549250 -0.300919
v -1.069392 2.403579 -0.442957
v -1.388415 2.204216 -0.575100
v -1.676420 1.955615 -0.694396
v -1.926978 1.663329 -0.798181
v -2.134491 1.333886 -0.884136
v -2.294322 0.974647 -0.950340
v -2.402903 0.593635 -0.995315
v -2.457807 0.199363 -1.018057
v -2.457807 -0.199363 -1.018057
v -2.402903 -0.593635 -0.995315
v -2.294322 -0.974647 -0.950340
v -2.134491 -1.333886 -0.884136
v -1.926978 -1.663329 -0.798181
v -1.676420 -1.955615 -0.694396
v -1.388415 -2.204216 -0.575100
v -1.069392 -2.403579 -0.442957
v -0.726482 -2.549250 -0.300919
v -0.367344 -2.637975 -0.152159
v -0.330601 2.637975 -0.220901
v -0.653817 2.549250 -0.436867
v -0.962428 2.403579 -0.643074
v -1.249540 2.204216 -0.834916
v -1.508738 1.955615 -1.008107
v -1.734234 1.663329 -1.158779
v -1.920991 1.333886 -1.283566
v -2.064835 0.974647 -1.379679
v -2.162555 0.593635 -1.444974
v -2.211967 0.199363 -1.477990
v -2.211967 -0.199363 -1.477990
v -2.162555 -0.593635 -1.444974
v -2.064835 -0.974647 -1.379679
v -1.920991 -1.333886 -1.283566
v -1.734234 -1.663329 -1.158779
v -1.508738 -1.955615 -1.008107
v -1.249540 -2.204216 -0.834916
v -0.962428 -2.403579 -0.643074
v -0.653817 -2.549250 -0.436867
v -0.330601 -2.637975 -0.220901
v -0.281153 2.637975 -0.281153
v -0.556026 2.549250 -0.556026
v -0.818477 2.403579 -0.818478
v -1.062646 2.204216 -1.062647
v -1.283076 1.955615 -1.283077
v -1.474845 1.663329 -1.474846
v -1.633669 1.333886 -1.633669
v -1.755997 0.974647 -1.755998
v -1.839102 0.593635 -1.839103
v -1.881124 0.199363 -1.881124
v -1.881124 -0.199363 -1.881124
v -1.839102 -0.593635 -1.839103
v -1.755997 -0.974647 -1.755998
v -1.633669 -1.333886 -1.633669
v -1.474845 -1.663329 -1.474846
v -1.283076 -1.955615 -1.283077
v -1.062646 -2.204216 -1.062647
v -0.818477 -2.403579 -0.818478
v -0.556026 -2.549250 -0.556026
v -0.281153 -2.637975 -0.281153
v -0.220900 2.637975 -0.330601
v -0.436866 2.549250 -0.653817
v -0.643073 2.403579 -0.962428
v -0.834916 2.204216 -1.249540
v -1.008107 1.955615 -1.508739
v -1.158778 1.663329 -1.734235
v -1.283565 1.333886 -1.920992
v -1.379678 0.974647 -2.064835
v -1.444973 0.593635 -2.162556
v -1.477989 0.199363 -2.211967
v -1.477989 -0.199363 -2.211967
v -1.444973 -0.593635 -2.162556
v -1.379678 -0.974647 -2.064835
v -1.283565 -1.333886 -1.920992
v -1.158778 -1.663329 -1.734235
v -1.008107 -1.955615 -1.508739
v -0.834916 -2.204216 -1.249540
v -0.643073 -2.403579 -0.962428
v -0.436866 -2.549250 -0.653817
v -0.220900 -2.637975 -0.330601
v -0.152159 2.637975 -0.367344
v -0.300919 2.549250 -0.726482
v -0.442957 2.403579 -1.069392
v -0.575100 2.204216 -1.388415
v -0.694396 1.955615 -1.676420
v -0.798180 1.663329 -1.926978
v -0.884135 1.333886 -2.134491
v -0.950339 0.974647 -2.294322
v -0.995314 0.593635 -2.402903
v -1.018057 0.199363 -2.457806
v -1.018057 -0.199363 -2.457806
v -0.995314 -0.593635 -2.402903
v -0.950339 -0.974647 -2.294322
v -0.884135 -1.333886 -2.134491
v -0.798180 -1.663329 -1.926978
v -0.694396 -1.955615 -1.676420
v -0.575100 -2.204216 -1.388415
v -0.442957 -2.403579 -1.069392
v -0.300919 -2.549250 -0.726482
v -0.152159 -2.637975 -0.367344
v -0.077570 2.637975 -0.389970
v -0.153407 2.549250 -0.771230
v -0.225817 2.403579 -1.135261
v -0.293183 2.204216 -1.473933
v -0.354000 1.955615 -1.779678
v -0.406908 1.663329 -2.045669
v -0.450728 1.333886 -2.265964
v -0.484478 0.974647 -2.435639
v -0.507407 0.593635 -2.550908
v -0.519001 0.199363 -2.609193
v -0.519001 -0.199363 -2.609193
v -0.507407 -0.593635 -2.550908
v -0.484478 -0.974647 -2.435639
v -0.450728 -1.333886 -2.265964
v -0.406908 -1.663329 -2.045669
v -0.354000 -1.955615 -1.779678
v -0.293183 -2.204216 -1.473933
v -0.225817 -2.403579 -1.135261
v -0.153407 -2.549250 -0.771230
v -0.077570 -2.637975 -0.389970
v 0.000000 2.549250 -0.786339
v 0.000000 2.204216 -1.502809
v 0.000000 1.955615 -1.814544
v 0.000000 1.333886 -2.310357
v 0.000001 0.593635 -2.600883
v 0.000000 0.199363 -2.660310
v 0.000000 -1.333886 -2.310357
v 0.000000 -1.955615 -1.814544
v 0.000000 -2.637975 -0.397610
vn 0.0613 0.7804 -0.6223
vn 0.0219 -0.9747 -0.2225
vn 0.0937 -0.2935 -0.9514
vn 0.0720 0.6784 -0.7311
vn 0.0074 -0.9972 -0.0747
vn 0.0884 -0.4322 -0.8974
vn 0.0811 0.5615 -0.8235
vn 0.0811 -0.5615 -0.8235
vn 0.0884 0.4322 -0.8974
vn 0.0074 0.9972 -0.0747
vn 0.0720 -0.6784 -0.7311
vn 0.0937 0.2935 -0.9514
vn 0.0219 0.9747 -0.2225
vn 0.0613 -0.7804 -0.6223
vn 0.0969 0.1483 -0.9842
vn 0.0360 0.9303 -0.3651
vn 0.0492 -0.8650 -0.4994
vn 0.0980 -0.0000 -0.9952
vn 0.0492 0.8650 -0.4994
vn 0.0360 -0.9303 -0.3651
vn 0.0969 -0.1483 -0.9842
vn 0.0218 -0.9972 -0.0719
vn 0.2618 -0.4322 -0.8630
vn 0.2402 0.5615 -0.7919
vn 0.2402 -0.5615 -0.7919
vn 0.2618 0.4322 -0.8630
vn 0.0218 0.9972 -0.0719
vn 0.2133 -0.6784 -0.7031
vn 0.2775 0.2935 -0.9148
vn 0.0649 0.9747 -0.2139
vn 0.1815 -0.7804 -0.5984
vn 0.2871 0.1483 -0.9464
vn 0.1065 0.9303 -0.3511
vn 0.1457 -0.8650 -0.4802
vn 0.2903 -0.0000 -0.9569
vn 0.1457 0.8650 -0.4802
vn 0.1065 -0.9303 -0.3511
vn 0.2871 -0.1483 -0.9464
vn 0.1815 0.7804 -0.5984
vn 0.0649 -0.9747 -0.2139
vn 0.2775 -0.2935 -0.9148
vn 0.2133 0.6784 -0.7031
vn 0.3901 -0.5615 -0.7298
vn 0.4251 0.4322 -0.7953
vn 0.0354 0.9972 -0.0662
vn 0.3463 -0.6784 -0.6479
vn 0.4506 0.2935 -0.8431
vn 0.1054 0.9747 -0.1971
vn 0.2948 -0.7804 -0.5515
vn 0.4662 0.1483 -0.8722
vn 0.1729 0.9303 -0.3236
vn 0.2366 -0.8650 -0.4426
vn 0.4714 -0.0000 -0.8819
vn 0.2366 0.8650 -0.4426
vn 0.1729 -0.9303 -0.3236
vn 0.4662 -0.1483 -0.8722
vn 0.2948 0.7804 -0.5515
vn 0.1054 -0.9747 -0.1971
vn 0.4506 -0.2935 -0.8431
vn 0.3463 0.6784 -0.6479
vn 0.0354 -0.9972 -0.0662
vn 0.4251 -0.4322 -0.7953
vn 0.3901 0.5615 -0.7298
vn 0.6065 0.2935 -0.7390
vn 0.1418 0.9747 -0.1728
vn 0.3967 -0.7804 -0.4834
vn 0.6274 0.1483 -0.7645
vn 0.2327 0.9303 -0.2836
vn 0.3183 -0.8650 -0.3879
vn 0.6344 -0.0000 -0.7730
vn 0.3183 0.8650 -0.3879
vn 0.2327 -0.9303 -0.2836
vn 0.6274 -0.1483 -0.7645
vn 0.3967 0.7804 -0.4834
vn 0.1418 -0.9747 -0.1728
vn 0.6065 -0.2935 -0.7390
vn 0.4661 0.6784 -0.5679
vn 0.0476 -0.9972 -0.0580
vn 0.5721 -0.4322 -0.6971
vn 0.5250 0.5615 -0.6397
vn 0.5250 -0.5615 -0.6397
vn 0.5721 0.4322 -0.6971
vn 0.0476 0.9972 -0.0580
vn 0.4661 -0.6784 -0.5679
vn 0.2836 0.9303 -0.2327
vn 0.3879 -0.8650 -0.3183
vn 0.7730 -0.0000 -0.6344
vn 0.3879 0.8650 -0.3183
vn 0.2836 -0.9303 -0.2327
vn 0.7645 -0.1483 -0.6274
vn 0.4834 0.7804 -0.3967
vn 0.1728 -0.9747 -0.1418
vn 0.7390 -0.2935 -0.6065
vn 0.5679 0.6784 -0.4661
vn 0.0580 -0.9972 -0.0476
vn 0.6971 -0.4322 -0.5721
vn 0.6397 0.5615 -0.5250
vn 0.6397 -0.5615 -0.5250
vn 0.6971 0.4322 -0.5721
vn 0.0580 0.9972 -0.0476
vn 0.5679 -0.6784 -0.4661
vn 0.7390 0.2935 -0.6065
vn 0.1728 0.9747 -0.1418
vn 0.4834 -0.7804 -0.3967
vn 0.7645 0.1483 -0.6274
vn 0.8722 -0.1483 -0.4662
vn 0.5515 0.7804 -0.2948
vn 0.1971 -0.9747 -0.1054
vn 0.8431 -0.2935 -0.4506
vn 0.6479 0.6784 -0.3463
vn 0.0662 -0.9972 -0.0354
vn 0.7953 -0.4322 -0.4251
vn 0.7298 0.5615 -0.3901
vn 0.7298 -0.5615 -0.3901
vn 0.7953 0.4322 -0.4251
vn 0.0662 0.9972 -0.0354
vn 0.6479 -0.6784 -0.3463
vn 0.8431 0.2935 -0.4506
vn 0.1971 0.9747 -0.1054
vn 0.5515 -0.7804 -0.2948
vn 0.8722 0.1483 -0.4662
vn 0.3236 0.9303 -0.1729
vn 0.4426 -0.8650 -0.2366
vn 0.8819 -0.0000 -0.4714
vn 0.4426 0.8650 -0.2366
vn 0.3236 -0.9303 -0.1729
vn 0.7031 0.6784 -0.2133
vn 0.0719 -0.9972 -0.0218
vn 0.8630 -0.4322 -0.2618
vn 0.7919 0.5615 -0.2402
vn 0.7919 -0.5615 -0.2402
vn 0.8630 0.4322 -0.2618
vn 0.0719 0.9972 -0.0218
vn 0.7031 -0.6784 -0.2133
vn 0.9148 0.2935 -0.2775
vn 0.2139 0.9747 -0.0649
vn 0.5984 -0.7804 -0.1815
vn 0.9464 0.1483 -0.2871
vn 0.3511 0.9303 -0.1065
vn 0.4802 -0.8650 -0.1457
vn 0.9569 -0.0000 -0.2903
vn 0.4802 0.8650 -0.1457
vn 0.3511 -0.9303 -0.1065
vn 0.9464 -0.1483 -0.2871
vn 0.5984 0.7804 -0.1815
vn 0.2139 -0.9747 -0.0649
vn 0.9148 -0.2935 -0.2775
vn 0.8235 -0.5615 -0.0811
vn 0.8974 0.4322 -0.0884
vn 0.0747 0.9972 -0.0074
vn 0.7311 -0.6784 -0.0720
vn 0.9514 0.2935 -0.0937
vn 0.2225 0.9747 -0.0219
vn 0.6223 -0.7804 -0.0613
vn 0.9842 0.1483 -0.0969
vn 0.3651 0.9303 -0.0360
vn 0.4994 -0.8650 -0.0492
vn 0.9952 -0.0000 -0.0980
vn 0.4994 0.8650 -0.0492
vn 0.3651 -0.9303 -0.0360
vn 0.9842 -0.1483 -0.0969
vn 0.6223 0.7804 -0.0613
vn 0.2225 -0.9747 -0.0219
vn 0.9514 -0.2935 -0.0937
vn 0.7311 0.6784 -0.0720
vn 0.0747 -0.9972 -0.0074
vn 0.8974 -0.4322 -0.0884
vn 0.8235 0.5615 -0.0811
vn 0.7311 -0.6784 0.0720
vn 0.9514 0.2935 0.0937
vn 0.2225 0.9747 0.0219
vn 0.6223 -0.7804 0.0613
vn 0.9842 0.1483 0.0969
vn 0.3651 0.9303 0.0360
vn 0.4994 -0.8650 0.0492
vn 0.9952 -0.0000 0.0980
vn 0.4994 0.8650 0.0492
vn 0.3651 -0.9303 0.0360
vn 0.9842 -0.1483 0.0969
vn 0.6223 0.7804 0.0613
vn 0.2225 -0.9747 0.0219
vn 0.9514 -0.2935 0.0937
vn 0.7311 0.6784 0.0720
vn 0.0747 -0.9972 0.0074
vn 0.8974 -0.4322 0.0884
vn 0.8235 0.5615 0.0811
vn 0.8235 -0.5615 0.0811
vn 0.8974 0.4322 0.0884
vn 0.0747 0.9972 0.0074
vn 0.9464 0.1483 0.2871
vn 0.3511 0.9303 0.1065
vn 0.4802 -0.8650 0.1457
vn 0.9569 -0.0000 0.2903
vn 0.4802 0.8650 0.1457
vn 0.3511 -0.9303 0.1065
vn 0.9464 -0.1483 0.2871
vn 0.5984 0.7804 0.1815
vn 0.2139 -0.9747 0.0649
vn 0.9148 -0.2935 0.2775
vn 0.7031 0.6784 0.2133
vn 0.0719 -0.9972 0.0218
vn 0.8630 -0.4322 0.2618
vn 0.7919 0.5615 0.2402
vn 0.7919 -0.5615 0.2402
vn 0.8630 0.4322 0.2618
vn 0.0719 0.9972 0.0218
vn 0.7031 -0.6784 0.2133
vn 0.9148 0.2935 0.2775
vn 0.2139 0.9747 0.0649
vn 0.5984 -0.7804 0.1815
vn 0.4426 0.8650 0.2366
vn 0.3236 -0.9303 0.1729
vn 0.8722 -0.1483 0.4662
vn 0.5515 0.7804 0.2948
vn 0.1972 -0.9747 0.1054
vn 0.8431 -0.2935 0.4506
vn 0.6479 0.6784 0.3463
vn 0.0662 -0.9972 0.0354
vn 0.7953 -0.4322 0.4251
vn 0.7298 0.5615 0.3901
vn 0.7298 -0.5615 0.3901
vn 0.7953 0.4322 0.4251
vn 0.0662 0.9972 0.0354
vn 0.6479 -0.6784 0.3463
vn 0.8431 0.2935 0.4506
vn 0.1971 0.9747 0.1054
vn 0.5515 -0.7804 0.2948
vn 0.8722 0.1483 0.4662
vn 0.3236 0.9303 0.1729
vn 0.4426 -0.8650 0.2366
vn 0.8819 -0.0000 0.4714
vn 0.7390 -0.2935 0.6065
vn 0.5679 0.6784 0.4661
vn 0.0580 -0.9972 0.0476
vn 0.6971 -0.4322 0.5721
vn 0.6397 0.5615 0.5250
vn 0.6397 -0.5615 0.5250
vn 0.6971 0.4322 0.5721
vn 0.0580 0.9972 0.0476
vn 0.5679 -0.6784 0.4661
vn 0.7390 0.2935 0.6065
vn 0.1728 0.9747 0.1418
vn 0.4834 -0.7804 0.3967
vn 0.7645 0.1483 0.6274
vn 0.2836 0.9303 0.2327
vn 0.3879 -0.8650 0.3183
vn 0.7730 -0.0000 0.6344
vn 0.3879 0.8650 0.3183
vn 0.2836 -0.9303 0.2327
vn 0.7645 -0.1483 0.6274
vn 0.4834 0.7804 0.3967
vn 0.1728 -0.9747 0.1418
vn 0.5250 0.5615 0.6397
vn 0.5250 -0.5615 0.6397
vn 0.5721 0.4322 0.6971
vn 0.0476 0.9972 0.0580
vn 0.4661 -0.6784 0.5679
vn 0.6065 0.2935 0.7390
vn 0.1418 0.9747 0.1728
vn 0.3967 -0.7804 0.4834
vn 0.6274 0.1483 0.7645
vn 0.2327 0.9303 0.2836
vn 0.3183 -0.8650 0.3879
vn 0.6344 -0.0000 0.7730
vn 0.3183 0.8650 0.3879
vn 0.2327 -0.9303 0.2836
vn 0.6274 -0.1483 0.7645
vn 0.3967 0.7804 0.4834
vn 0.1418 -0.9747 0.1728
vn 0.6065 -0.2935 0.7390
vn 0.4661 0.6784 0.5679
vn 0.0476 -0.9972 0.0580
vn 0.5721 -0.4322 0.6971
vn 0.0354 0.9972 0.0662
vn 0.3463 -0.6784 0.6479
vn 0.4506 0.2935 0.8431
vn 0.1054 0.9747 0.1971
vn 0.2948 -0.7804 0.5515
vn 0.4662 0.1483 0.8722
vn 0.1729 0.9303 0.3236
vn 0.2366 -0.8650 0.4426
vn 0.4714 -0.0000 0.8819
vn 0.2366 0.8650 0.4426
vn 0.1729 -0.9303 0.3236
vn 0.4662 -0.1483 0.8722
vn 0.2948 0.7804 0.5515
vn 0.1054 -0.9747 0.1971
vn 0.4506 -0.2935 0.8431
vn 0.3463 0.6784 0.6479
vn 0.0354 -0.9972 0.0662
vn 0.4251 -0.4322 0.7953
vn 0.3901 0.5615 0.7298
vn 0.3901 -0.5615 0.7298
vn 0.4251 0.4322 0.7953
vn 0.1815 -0.7804 0.5984
vn 0.2871 0.1483 0.9464
vn 0.1065 0.9303 0.3511
vn 0.1457 -0.8650 0.4802
vn 0.2903 -0.0000 0.9569
vn 0.1457 0.8650 0.4802
vn 0.1065 -0.9303 0.3511
vn 0.2871 -0.1483 0.9464
vn 0.1815 0.7804 0.5984
vn 0.0649 -0.9747 0.2139
vn 0.2775 -0.2935 0.9148
vn 0.2133 0.6784 0.7031
vn 0.0218 -0.9972 0.0719
vn 0.2618 -0.4322 0.8630
vn 0.2402 0.5615 0.7919
vn 0.2402 -0.5615 0.7919
vn 0.2618 0.4322 0.8630
vn 0.0218 0.9972 0.0719
vn 0.2133 -0.6784 0.7031
vn 0.2775 0.2935 0.9148
vn 0.0649 0.9747 0.2139
vn 0.0980 -0.0000 0.9952
vn 0.0492 0.8650 0.4994
vn 0.0360 -0.9303 0.3651
vn 0.0969 -0.1483 0.9842
vn 0.0613 0.7804 0.6223
vn 0.0219 -0.9747 0.2225
vn 0.0937 -0.2935 0.9514
vn 0.0720 0.6784 0.7311
vn 0.0074 -0.9972 0.0747
vn 0.0884 -0.4322 0.8974
vn 0.0811 0.5615 0.8235
vn 0.0811 -0.5615 0.8235
vn 0.0884 0.4322 0.8974
vn 0.0074 0.9972 0.0747
vn 0.0720 -0.6784 0.7311
vn 0.0937 0.2935 0.9514
vn 0.0219 0.9747 0.2225
vn 0.0613 -0.7804 0.6223
vn 0.0969 0.1483 0.9842
vn 0.0360 0.9303 0.3651
vn 0.0492 -0.8650 0.4994
vn -0.0613 0.7804 0.6223
vn -0.0219 -0.9747 0.2225
vn -0.0937 -0.2935 0.9514
vn -0.0720 0.6784 0.7311
vn -0.0074 -0.9972 0.0747
vn -0.0884 -0.4322 0.8974
vn -0.0811 0.5615 0.8235
vn -0.0811 -0.5615 0.8235
vn -0.0884 0.4322 0.8974
vn -0.0074 0.9972 0.0747
vn -0.0720 -0.6784 0.7311
vn -0.0937 0.2935 0.9514
vn -0.0219 0.9747 0.2225
vn -0.0613 -0.7804 0.6223
vn -0.0969 0.1483 0.9842
vn -0.0360 0.9303 0.3651
vn -0.0492 -0.8650 0.4994
vn -0.0980 -0.0000 0.9952
vn -0.0492 0.8650 0.4994
vn -0.0360 -0.9303 0.3651
vn -0.0969 -0.1483 0.9842
vn -0.2618 -0.4322 0.8630
vn -0.2402 0.5615 0.7919
vn -0.2402 -0.5615 0.7919
vn -0.2618 0.4322 0.8630
vn -0.0218 0.9972 0.0719
vn -0.2133 -0.6784 0.7031
vn -0.2775 0.2935 0.9148
vn -0.0649 0.9747 0.2139
vn -0.1815 -0.7804 0.5984
vn -0.2871 0.1483 0.9464
vn -0.1065 0.9303 0.3511
vn -0.1457 -0.8650 0.4802
vn -0.2903 -0.0000 0.9569
vn -0.1457 0.8650 0.4802
vn -0.1065 -0.9303 0.3511
vn -0.2871 -0.1483 0.9464
vn -0.1815 0.7804 0.5984
vn -0.0649 -0.9747 0.2139
vn -0.2775 -0.2935 0.9148
vn -0.2133 0.6784 0.7031
vn -0.0218 -0.9972 0.0719
vn -0.4251 0.4322 0.7953
vn -0.0354 0.9972 0.0662
vn -0.3463 -0.6784 0.6479
vn -0.4506 0.2935 0.8431
vn -0.1054 0.9747 0.1971
vn -0.2948 -0.7804 0.5515
vn -0.4662 0.1483 0.8722
vn -0.1729 0.9303 0.3236
vn -0.2366 -0.8650 0.4426
vn -0.4714 -0.0000 0.8819
vn -0.2366 0.8650 0.4426
vn -0.1729 -0.9303 0.3236
vn -0.4662 -0.1483 0.8722
vn -0.2948 0.7804 0.5515
vn -0.1054 -0.9747 0.1971
vn -0.4506 -0.2935 0.8431
vn -0.3463 0.6784 0.6479
vn -0.0354 -0.9972 0.0662
vn -0.4251 -0.4322 0.7953
vn -0.3901 0.5615 0.7298
vn -0.3901 -0.5615 0.7298
vn -0.1418 0.9747 0.1728
vn -0.3967 -0.7804 0.4834
vn -0.6274 0.1483 0.7645
vn -0.2327 0.9303 0.2836
vn -0.3183 -0.8650 0.3879
vn -0.6344 -0.0000 0.7730
vn -0.3183 0.8650 0.3879
vn -0.2327 -0.9303 0.2836
vn -0.6274 -0.1483 0.7645
vn -0.3967 0.7804 0.4834
vn -0.1418 -0.9747 0.1728
vn -0.6065 -0.2935 0.7390
vn -0.4661 0.6784 0.5679
vn -0.0476 -0.9972 0.0580
vn -0.5721 -0.4322 0.6971
vn -0.5250 0.5615 0.6397
vn -0.5250 -0.5615 0.6397
vn -0.5721 0.4322 0.6971
vn -0.0476 0.9972 0.0580
vn -0.4661 -0.6784 0.5679
vn -0.6065 0.2935 0.7390
vn -0.3879 -0.8650 0.3183
vn -0.7730 -0.0000 0.6344
vn -0.3879 0.8650 0.3183
vn -0.2836 -0.9303 0.2327
vn -0.7645 -0.1483 0.6274
vn -0.4834 0.7804 0.3967
vn -0.1728 -0.9747 0.1418
vn -0.7390 -0.2935 0.6065
vn -0.5679 0.6784 0.4661
vn -0.0580 -0.9972 0.0476
vn -0.6971 -0.4322 0.5721
vn -0.6397 0.5615 0.5250
vn -0.6397 -0.5615 0.5250
vn -0.6971 0.4322 0.5721
vn -0.0580 0.9972 0.0476
vn -0.5679 -0.6784 0.4661
vn -0.7390 0.2935 0.6065
vn -0.1728 0.9747 0.1418
vn -0.4834 -0.7804 0.3967
vn -0.7645 0.1483 0.6274
vn -0.2836 0.9303 0.2327
vn -0.8722 -0.1483 0.4662
vn -0.5515 0.7804 0.2948
vn -0.1971 -0.9747 0.1054
vn -0.8431 -0.2935 0.4506
vn -0.6479 0.6784 0.3463
vn -0.0662 -0.9972 0.0354
vn -0.7953 -0.4322 0.4251
vn -0.7298 0.5615 0.3901
vn -0.7298 -0.5615 0.3901
vn -0.7953 0.4322 0.4251
vn -0.0662 0.9972 0.0354
vn -0.6479 -0.6784 0.3463
vn -0.8431 0.2935 0.4506
vn -0.1971 0.9747 0.1054
vn -0.5515 -0.7804 0.2948
vn -0.8722 0.1483 0.4662
vn -0.3236 0.9303 0.1729
vn -0.4426 -0.8650 0.2366
vn -0.8819 -0.0000 0.4714
vn -0.4426 0.8650 0.2366
vn -0.3236 -0.9303 0.1729
vn -0.7031 0.6784 0.2133
vn -0.0719 -0.9972 0.0218
vn -0.8630 -0.4322 0.2618
vn -0.7919 0.5615 0.2402
vn -0.7919 -0.5615 0.2402
vn -0.8630 0.4322 0.2618
vn -0.0719 0.9972 0.0218
vn -0.7031 -0.6784 0.2133
vn -0.9148 0.2935 0.2775
vn -0.2139 0.9747 0.0649
vn -0.5984 -0.7804 0.1815
vn -0.9464 0.1483 0.2871
vn -0.3511 0.9303 0.1065
vn -0.4802 -0.8650 0.1457
vn -0.9569 -0.0000 0.2903
vn -0.4802 0.8650 0.1457
vn -0.3511 -0.9303 0.1065
vn -0.9464 -0.1483 0.2871
vn -0.5984 0.7804 0.1815
vn -0.2139 -0.9747 0.0649
vn -0.9148 -0.2935 0.2775
vn -0.8235 -0.5615 0.0811
vn -0.8974 0.4322 0.0884
vn -0.0747 0.9972 0.0074
vn -0.7311 -0.6784 0.0720
vn -0.9514 0.2935 0.0937
vn -0.2225 0.9747 0.0219
vn -0.6223 -0.7804 0.0613
vn -0.9842 0.1483 0.0969
vn -0.3651 0.9303 0.0360
vn -0.4994 -0.8650 0.0492
vn -0.9952 -0.0000 0.0980
vn -0.4994 0.8650 0.0492
vn -0.3651 -0.9303 0.0360
vn -0.9842 -0.1483 0.0969
vn -0.6223 0.7804 0.0613
vn -0.2225 -0.9747 0.0219
vn -0.9514 -0.2935 0.0937
vn -0.7311 0.6784 0.0720
vn -0.0747 -0.9972 0.0074
vn -0.8974 -0.4322 0.0884
vn -0.8235 0.5615 0.0811
vn -0.9514 0.2935 -0.0937
vn -0.2225 0.9747 -0.0219
vn -0.6223 -0.7804 -0.0613
vn -0.9842 0.1483 -0.0969
vn -0.3651 0.9303 -0.0360
vn -0.4994 -0.8650 -0.0492
vn -0.9952 -0.0000 -0.0980
vn -0.4994 0.8650 -0.0492
vn -0.3651 -0.9303 -0.0360
vn -0.9842 -0.1483 -0.0969
vn -0.6223 0.7804 -0.0613
vn -0.2225 -0.9747 -0.0219
vn -0.9514 -0.2935 -0.0937
vn -0.7311 0.6784 -0.0720
vn -0.0747 -0.9972 -0.0074
vn -0.8974 -0.4322 -0.0884
vn -0.8235 0.5615 -0.0811
vn -0.8235 -0.5615 -0.0811
vn -0.8974 0.4322 -0.0884
vn -0.0747 0.9972 -0.0074
vn -0.7311 -0.6784 -0.0720
vn -0.3511 0.9303 -0.1065
vn -0.4802 -0.8650 -0.1457
vn -0.9569 -0.0000 -0.2903
vn -0.4802 0.8650 -0.1457
vn -0.3511 -0.9303 -0.1065
vn -0.9464 -0.1483 -0.2871
vn -0.5984 0.7804 -0.1815
vn -0.2139 -0.9747 -0.0649
vn -0.9148 -0.2935 -0.2775
vn -0.7031 0.6784 -0.2133
vn -0.0719 -0.9972 -0.0218
vn -0.8630 -0.4322 -0.2618
vn -0.7919 0.5615 -0.2402
vn -0.7919 -0.5615 -0.2402
vn -0.8630 0.4322 -0.2618
vn -0.0719 0.9972 -0.0218
vn -0.7031 -0.6784 -0.2133
vn -0.9148 0.2935 -0.2775
vn -0.2139 0.9747 -0.0649
vn -0.5984 -0.7804 -0.1815
vn -0.9464 0.1483 -0.2871
vn -0.3236 -0.9303 -0.1729
vn -0.8722 -0.1483 -0.4662
vn -0.5515 0.7804 -0.2948
vn -0.1971 -0.9747 -0.1054
vn -0.8431 -0.2935 -0.4506
vn -0.6479 0.6784 -0.3463
vn -0.0662 -0.9972 -0.0354
vn -0.7953 -0.4322 -0.4251
vn -0.7298 0.5615 -0.3901
vn -0.7298 -0.5615 -0.3901
vn -0.7953 0.4322 -0.4251
vn -0.0662 0.9972 -0.0354
vn -0.6479 -0.6784 -0.3463
vn -0.8431 0.2935 -0.4506
vn -0.1971 0.9747 -0.1054
vn -0.5515 -0.7804 -0.2948
vn -0.8722 0.1483 -0.4662
vn -0.3236 0.9303 -0.1729
vn -0.4426 -0.8650 -0.2366
vn -0.8819 -0.0000 -0.4714
vn -0.4426 0.8650 -0.2366
vn -0.7390 -0.2935 -0.6065
vn -0.5679 0.6784 -0.4661
vn -0.0580 -0.9972 -0.0476
vn -0.6971 -0.4322 -0.5721
vn -0.6397 0.5615 -0.5250
vn -0.6397 -0.5615 -0.5250
vn -0.6971 0.4322 -0.5721
vn -0.0580 0.9972 -0.0476
vn -0.5679 -0.6784 -0.4661
vn -0.7390 0.2935 -0.6065
vn -0.1728 0.9747 -0.1418
vn -0.4834 -0.7804 -0.3967
vn -0.7645 0.1483 -0.6274
vn -0.2836 0.9303 -0.2327
vn -0.3879 -0.8650 -0.3183
vn -0.7730 -0.0000 -0.6344
vn -0.3879 0.8650 -0.3183
vn -0.2836 -0.9303 -0.2327
vn -0.7645 -0.1483 -0.6274
vn -0.4834 0.7804 -0.3967
vn -0.1728 -0.9747 -0.1418
vn -0.5250 0.5615 -0.6397
vn -0.5250 -0.5615 -0.6397
vn -0.5721 0.4322 -0.6971
vn -0.0476 0.9972 -0.0580
vn -0.4661 -0.6784 -0.5679
vn -0.6065 0.2935 -0.7390
vn -0.1418 0.9747 -0.1728
vn -0.3967 -0.7804 -0.4834
vn -0.6274 0.1483 -0.7645
vn -0.2327 0.9303 -0.2836
vn -0.3183 -0.8650 -0.3879
vn -0.6344 -0.0000 -0.7730
vn -0.3183 0.8650 -0.3879
vn -0.2327 -0.9303 -0.2836
vn -0.6274 -0.1483 -0.7645
vn -0.3967 0.7804 -0.4834
vn -0.1418 -0.9747 -0.1728
vn -0.6065 -0.2935 -0.7390
vn -0.4661 0.6784 -0.5679
vn -0.0476 -0.9972 -0.0580
vn -0.5721 -0.4322 -0.6971
vn -0.0354 0.9972 -0.0662
vn -0.3463 -0.6784 -0.6479
vn -0.4506 0.2935 -0.8431
vn -0.1054 0.9747 -0.1971
vn -0.2948 -0.7804 -0.5515
vn -0.4662 0.1483 -0.8722
vn -0.1729 0.9303 -0.3236
vn -0.2366 -0.8650 -0.4426
vn -0.4714 -0.0000 -0.8819
vn -0.2366 0.8650 -0.4426
vn -0.1729 -0.9303 -0.3236
vn -0.4662 -0.1483 -0.8722
vn -0.2948 0.7804 -0.5515
vn -0.1054 -0.9747 -0.1971
vn -0.4506 -0.2935 -0.8431
vn -0.3463 0.6784 -0.6479
vn -0.0354 -0.9972 -0.0662
vn -0.4251 -0.4322 -0.7953
vn -0.3901 0.5615 -0.7298
vn -0.3901 -0.5615 -0.7298
vn -0.4251 0.4322 -0.7953
vn -0.2871 0.1483 -0.9464
vn -0.1065 0.9303 -0.3511
vn -0.1457 -0.8650 -0.4802
vn -0.2903 -0.0000 -0.9569
vn -0.1457 0.8650 -0.4802
vn -0.1065 -0.9303 -0.3511
vn -0.2871 -0.1483 -0.9464
vn -0.1815 0.7804 -0.5984
vn -0.0649 -0.9747 -0.2139
vn -0.2775 -0.2935 -0.9148
vn -0.2133 0.6784 -0.7031
vn -0.0218 -0.9972 -0.0719
vn -0.2618 -0.4322 -0.8630
vn -0.2402 0.5615 -0.7919
vn -0.2402 -0.5615 -0.7919
vn -0.2618 0.4322 -0.8630
vn -0.0218 0.9972 -0.0719
vn -0.2133 -0.6784 -0.7031
vn -0.2775 0.2935 -0.9148
vn -0.0649 0.9747 -0.2139
vn -0.1815 -0.7804 -0.5984
vn -0.0492 0.8650 -0.4994
vn -0.0360 -0.9303 -0.3651
vn -0.0969 -0.1483 -0.9842
vn -0.0613 0.7804 -0.6223
vn -0.0219 -0.9747 -0.2225
vn -0.0937 -0.2935 -0.9514
vn -0.0720 0.6784 -0.7311
vn -0.0074 -0.9972 -0.0747
vn -0.0884 -0.4322 -0.8974
vn -0.0811 0.5615 -0.8235
vn -0.0811 -0.5615 -0.8235
vn -0.0884 0.4322 -0.8974
vn -0.0074 0.9972 -0.0747
vn -0.0720 -0.6784 -0.7311
vn -0.0937 0.2935 -0.9514
vn -0.0219 0.9747 -0.2225
vn -0.0613 -0.7804 -0.6223
vn -0.0969 0.1483 -0.9842
vn -0.0360 0.9303 -0.3651
vn -0.0492 -0.8650 -0.4994
vn -0.0980 -0.0000 -0.9952
vn 0.1971 -0.9747 0.1054
vn 0.1972 0.9747 0.1054
s 0
f 636//1 15//1 16//1
f 11//2 31//2 642//2
f 7//3 23//3 24//3
f 3//4 16//4 17//4
f 392//5 642//5 31//5
f 640//6 24//6 25//6
f 637//7 17//7 18//7
f 640//8 26//8 8//8
f 637//9 19//9 4//9
f 1//10 393//10 12//10
f 8//11 27//11 641//11
f 638//12 19//12 20//12
f 634//13 12//13 13//13
f 641//14 28//14 9//14
f 638//15 21//15 639//15
f 2//16 13//16 14//16
f 10//17 28//17 29//17
f 639//18 22//18 5//18
f 635//19 14//19 15//19
f 11//20 29//20 30//20
f 6//21 22//21 23//21
f 392//22 31//22 51//22
f 25//23 44//23 45//23
f 17//24 38//24 18//24
f 25//25 46//25 26//25
f 18//26 39//26 19//26
f 12//27 393//27 32//27
f 26//28 47//28 27//28
f 19//29 40//29 20//29
f 12//30 33//30 13//30
f 28//31 47//31 48//31
f 20//32 41//32 21//32
f 13//33 34//33 14//33
f 29//34 48//34 49//34
f 21//35 42//35 22//35
f 14//36 35//36 15//36
f 30//37 49//37 50//37
f 23//38 42//38 43//38
f 15//39 36//39 16//39
f 31//40 50//40 51//40
f 24//41 43//41 44//41
f 16//42 37//42 17//42
f 46//43 65//43 66//43
f 39//44 58//44 59//44
f 32//45 393//45 52//45
f 47//46 66//46 67//46
f 39//47 60//47 40//47
f 33//48 52//48 53//48
f 48//49 67//49 68//49
f 40//50 61//50 41//50
f 34//51 53//51 54//51
f 48//52 69//52 49//52
f 41//53 62//53 42//53
f 34//54 55//54 35//54
f 49//55 70//55 50//55
f 43//56 62//56 63//56
f 35//57 56//57 36//57
f 50//58 71//58 51//58
f 44//59 63//59 64//59
f 36//60 57//60 37//60
f 392//61 51//61 71//61
f 44//62 65//62 45//62
f 37//63 58//63 38//63
f 59//64 80//64 60//64
f 52//65 73//65 53//65
f 68//66 87//66 88//66
f 61//67 80//67 81//67
f 53//68 74//68 54//68
f 69//69 88//69 89//69
f 61//70 82//70 62//70
f 54//71 75//71 55//71
f 70//72 89//72 90//72
f 62//73 83//73 63//73
f 55//74 76//74 56//74
f 71//75 90//75 91//75
f 64//76 83//76 84//76
f 57//77 76//77 77//77
f 392//78 71//78 91//78
f 64//79 85//79 65//79
f 57//80 78//80 58//80
f 66//81 85//81 86//81
f 59//82 78//82 79//82
f 52//83 393//83 72//83
f 66//84 87//84 67//84
f 73//85 94//85 74//85
f 88//86 109//86 89//86
f 81//87 102//87 82//87
f 75//88 94//88 95//88
f 90//89 109//89 110//89
f 82//90 103//90 83//90
f 75//91 96//91 76//91
f 91//92 110//92 111//92
f 84//93 103//93 104//93
f 77//94 96//94 97//94
f 392//95 91//95 111//95
f 84//96 105//96 85//96
f 77//97 98//97 78//97
f 86//98 105//98 106//98
f 79//99 98//99 99//99
f 72//100 393//100 92//100
f 86//101 107//101 87//101
f 79//102 100//102 80//102
f 72//103 93//103 73//103
f 88//104 107//104 108//104
f 81//105 100//105 101//105
f 102//106 123//106 103//106
f 95//107 116//107 96//107
f 110//108 131//108 111//108
f 104//109 123//109 124//109
f 97//110 116//110 117//110
f 392//111 111//111 131//111
f 104//112 125//112 105//112
f 97//113 118//113 98//113
f 106//114 125//114 126//114
f 99//115 118//115 119//115
f 92//116 393//116 112//116
f 106//117 127//117 107//117
f 99//118 120//118 100//118
f 92//119 113//119 93//119
f 108//120 127//120 128//120
f 101//121 120//121 121//121
f 93//122 114//122 94//122
f 108//123 129//123 109//123
f 101//124 122//124 102//124
f 95//125 114//125 115//125
f 110//126 129//126 130//126
f 117//127 136//127 137//127
f 392//128 131//128 151//128
f 124//129 145//129 125//129
f 117//130 138//130 118//130
f 126//131 145//131 146//131
f 119//132 138//132 139//132
f 112//133 393//133 132//133
f 126//134 147//134 127//134
f 119//135 140//135 120//135
f 112//136 133//136 113//136
f 127//137 148//137 128//137
f 121//138 140//138 141//138
f 113//139 134//139 114//139
f 128//140 149//140 129//140
f 121//141 142//141 122//141
f 115//142 134//142 135//142
f 130//143 149//143 150//143
f 122//144 143//144 123//144
f 116//145 135//145 136//145
f 130//146 151//146 131//146
f 124//147 143//147 144//147
f 146//148 165//148 166//148
f 139//149 158//149 159//149
f 132//150 393//150 152//150
f 146//151 167//151 147//151
f 139//152 160//152 140//152
f 132//153 153//153 133//153
f 147//154 168//154 148//154
f 141//155 160//155 161//155
f 133//156 154//156 134//156
f 148//157 169//157 149//157
f 141//158 162//158 142//158
f 135//159 154//159 155//159
f 150//160 169//160 170//160
f 142//161 163//161 143//161
f 136//162 155//162 156//162
f 151//163 170//163 171//163
f 144//164 163//164 164//164
f 137//165 156//165 157//165
f 392//166 151//166 171//166
f 144//167 165//167 145//167
f 137//168 158//168 138//168
f 166//169 187//169 167//169
f 159//170 180//170 160//170
f 153//171 172//171 173//171
f 167//172 188//172 168//172
f 161//173 180//173 181//173
f 154//174 173//174 174//174
f 168//175 189//175 169//175
f 161//176 182//176 162//176
f 155//177 174//177 175//177
f 169//178 190//178 170//178
f 162//179 183//179 163//179
f 156//180 175//180 176//180
f 170//181 191//181 171//181
f 164//182 183//182 184//182
f 157//183 176//183 177//183
f 392//184 171//184 191//184
f 164//185 185//185 165//185
f 157//186 178//186 158//186
f 166//187 185//187 186//187
f 159//188 178//188 179//188
f 152//189 393//189 172//189
f 181//190 200//190 201//190
f 173//191 194//191 174//191
f 188//192 209//192 189//192
f 181//193 202//193 182//193
f 175//194 194//194 195//194
f 190//195 209//195 210//195
f 182//196 203//196 183//196
f 176//197 195//197 196//197
f 191//198 210//198 211//198
f 184//199 203//199 204//199
f 176//200 197//200 177//200
f 392//201 191//201 211//201
f 184//202 205//202 185//202
f 177//203 198//203 178//203
f 186//204 205//204 206//204
f 179//205 198//205 199//205
f 172//206 393//206 192//206
f 186//207 207//207 187//207
f 179//208 200//208 180//208
f 172//209 193//209 173//209
f 187//210 208//210 188//210
f 195//211 214//211 215//211
f 210//212 229//212 230//212
f 202//213 223//213 203//213
f 195//214 216//214 196//214
f 211//215 230//215 231//215
f 204//216 223//216 224//216
f 196//217 217//217 197//217
f 392//218 211//218 231//218
f 204//219 225//219 205//219
f 197//220 218//220 198//220
f 206//221 225//221 226//221
f 199//222 218//222 219//222
f 192//223 393//223 212//223
f 207//224 226//224 227//224
f 199//225 220//225 200//225
f 192//226 213//226 193//226
f 207//227 228//227 208//227
f 201//228 220//228 221//228
f 193//229 214//229 194//229
f 208//230 229//230 209//230
f 201//231 222//231 202//231
f 224//232 243//232 244//232
f 217//233 236//233 237//233
f 392//234 231//234 251//234
f 224//235 245//235 225//235
f 217//236 238//236 218//236
f 226//237 245//237 246//237
f 219//238 238//238 239//238
f 212//239 393//239 232//239
f 226//240 247//240 227//240
f 219//241 240//241 220//241
f 212//242 233//242 213//242
f 228//243 247//243 248//243
f 221//244 240//244 241//244
f 213//245 234//245 214//245
f 228//246 249//246 229//246
f 221//247 242//247 222//247
f 215//248 234//248 235//248
f 230//249 249//249 250//249
f 222//250 243//250 223//250
f 215//251 236//251 216//251
f 231//252 250//252 251//252
f 237//253 258//253 238//253
f 246//254 265//254 266//254
f 239//255 258//255 259//255
f 232//256 393//256 252//256
f 246//257 267//257 247//257
f 239//258 260//258 240//258
f 232//259 253//259 233//259
f 248//260 267//260 268//260
f 241//261 260//261 261//261
f 233//262 254//262 234//262
f 248//263 269//263 249//263
f 241//264 262//264 242//264
f 235//265 254//265 255//265
f 250//266 269//266 270//266
f 242//267 263//267 243//267
f 235//268 256//268 236//268
f 251//269 270//269 271//269
f 244//270 263//270 264//270
f 237//271 256//271 257//271
f 392//272 251//272 271//272
f 244//273 265//273 245//273
f 252//274 393//274 272//274
f 266//275 287//275 267//275
f 259//276 280//276 260//276
f 252//277 273//277 253//277
f 268//278 287//278 288//278
f 260//279 281//279 261//279
f 253//280 274//280 254//280
f 268//281 289//281 269//281
f 261//282 282//282 262//282
f 255//283 274//283 275//283
f 270//284 289//284 290//284
f 263//285 282//285 283//285
f 255//286 276//286 256//286
f 271//287 290//287 291//287
f 264//288 283//288 284//288
f 257//289 276//289 277//289
f 392//290 271//290 291//290
f 264//291 285//291 265//291
f 257//292 278//292 258//292
f 266//293 285//293 286//293
f 259//294 278//294 279//294
f 288//295 307//295 308//295
f 280//296 301//296 281//296
f 273//297 294//297 274//297
f 288//298 309//298 289//298
f 281//299 302//299 282//299
f 275//300 294//300 295//300
f 290//301 309//301 310//301
f 283//302 302//302 303//302
f 275//303 296//303 276//303
f 290//304 311//304 291//304
f 284//305 303//305 304//305
f 277//306 296//306 297//306
f 392//307 291//307 311//307
f 284//308 305//308 285//308
f 277//309 298//309 278//309
f 286//310 305//310 306//310
f 279//311 298//311 299//311
f 272//312 393//312 292//312
f 286//313 307//313 287//313
f 279//314 300//314 280//314
f 272//315 293//315 273//315
f 301//316 322//316 302//316
f 295//317 314//317 315//317
f 310//318 329//318 330//318
f 303//319 322//319 323//319
f 295//320 316//320 296//320
f 311//321 330//321 331//321
f 304//322 323//322 324//322
f 297//323 316//323 317//323
f 392//324 311//324 331//324
f 304//325 325//325 305//325
f 297//326 318//326 298//326
f 306//327 325//327 326//327
f 299//328 318//328 319//328
f 292//329 393//329 312//329
f 306//330 327//330 307//330
f 299//331 320//331 300//331
f 292//332 313//332 293//332
f 308//333 327//333 328//333
f 300//334 321//334 301//334
f 293//335 314//335 294//335
f 308//336 329//336 309//336
f 315//337 336//337 316//337
f 330//338 351//338 331//338
f 324//339 343//339 344//339
f 317//340 336//340 337//340
f 392//341 331//341 351//341
f 324//342 345//342 325//342
f 317//343 338//343 318//343
f 326//344 345//344 346//344
f 319//345 338//345 339//345
f 312//346 393//346 332//346
f 326//347 347//347 327//347
f 319//348 340//348 320//348
f 313//349 332//349 333//349
f 328//350 347//350 348//350
f 320//351 341//351 321//351
f 313//352 334//352 314//352
f 328//353 349//353 329//353
f 321//354 342//354 322//354
f 315//355 334//355 335//355
f 329//356 350//356 330//356
f 323//357 342//357 343//357
f 344//358 365//358 345//358
f 337//359 358//359 338//359
f 346//360 365//360 366//360
f 339//361 358//361 359//361
f 332//362 393//362 352//362
f 346//363 367//363 347//363
f 339//364 360//364 340//364
f 332//365 353//365 333//365
f 348//366 367//366 368//366
f 340//367 361//367 341//367
f 333//368 354//368 334//368
f 348//369 369//369 349//369
f 341//370 362//370 342//370
f 335//371 354//371 355//371
f 350//372 369//372 370//372
f 343//373 362//373 363//373
f 335//374 356//374 336//374
f 351//375 370//375 371//375
f 344//376 363//376 364//376
f 337//377 356//377 357//377
f 392//378 351//378 371//378
f 359//379 378//379 379//379
f 352//380 393//380 372//380
f 366//381 387//381 367//381
f 359//382 380//382 360//382
f 352//383 373//383 353//383
f 368//384 387//384 388//384
f 360//385 381//385 361//385
f 353//386 374//386 354//386
f 368//387 389//387 369//387
f 361//388 382//388 362//388
f 355//389 374//389 375//389
f 370//390 389//390 390//390
f 363//391 382//391 383//391
f 355//392 376//392 356//392
f 371//393 390//393 391//393
f 364//394 383//394 384//394
f 357//395 376//395 377//395
f 392//396 371//396 391//396
f 364//397 385//397 365//397
f 357//398 378//398 358//398
f 366//399 385//399 386//399
f 372//400 395//400 373//400
f 388//401 409//401 410//401
f 380//402 403//402 381//402
f 373//403 396//403 374//403
f 389//404 410//404 411//404
f 381//405 404//405 382//405
f 374//406 397//406 375//406
f 390//407 411//407 412//407
f 383//408 404//408 405//408
f 375//409 398//409 376//409
f 391//410 412//410 413//410
f 384//411 405//411 406//411
f 377//412 398//412 399//412
f 392//413 391//413 413//413
f 384//414 407//414 385//414
f 377//415 400//415 378//415
f 386//416 407//416 408//416
f 379//417 400//417 401//417
f 372//418 393//418 394//418
f 386//419 409//419 387//419
f 379//420 402//420 380//420
f 410//421 431//421 411//421
f 403//422 424//422 404//422
f 397//423 416//423 417//423
f 412//424 431//424 432//424
f 405//425 424//425 425//425
f 397//426 418//426 398//426
f 412//427 433//427 413//427
f 406//428 425//428 426//428
f 399//429 418//429 419//429
f 392//430 413//430 433//430
f 406//431 427//431 407//431
f 399//432 420//432 400//432
f 408//433 427//433 428//433
f 401//434 420//434 421//434
f 394//435 393//435 414//435
f 408//436 429//436 409//436
f 401//437 422//437 402//437
f 395//438 414//438 415//438
f 410//439 429//439 430//439
f 402//440 423//440 403//440
f 395//441 416//441 396//441
f 425//442 444//442 445//442
f 417//443 438//443 418//443
f 433//444 452//444 453//444
f 426//445 445//445 446//445
f 419//446 438//446 439//446
f 392//447 433//447 453//447
f 426//448 447//448 427//448
f 419//449 440//449 420//449
f 428//450 447//450 448//450
f 420//451 441//451 421//451
f 414//452 393//452 434//452
f 428//453 449//453 429//453
f 421//454 442//454 422//454
f 414//455 435//455 415//455
f 430//456 449//456 450//456
f 422//457 443//457 423//457
f 415//458 436//458 416//458
f 431//459 450//459 451//459
f 423//460 444//460 424//460
f 416//461 437//461 417//461
f 432//462 451//462 452//462
f 439//463 458//463 459//463
f 392//464 453//464 473//464
f 446//465 467//465 447//465
f 439//466 460//466 440//466
f 448//467 467//467 468//467
f 441//468 460//468 461//468
f 434//469 393//469 454//469
f 448//470 469//470 449//470
f 441//471 462//471 442//471
f 434//472 455//472 435//472
f 449//473 470//473 450//473
f 442//474 463//474 443//474
f 435//475 456//475 436//475
f 450//476 471//476 451//476
f 443//477 464//477 444//477
f 437//478 456//478 457//478
f 452//479 471//479 472//479
f 445//480 464//480 465//480
f 438//481 457//481 458//481
f 453//482 472//482 473//482
f 446//483 465//483 466//483
f 468//484 487//484 488//484
f 461//485 480//485 481//485
f 454//486 393//486 474//486
f 468//487 489//487 469//487
f 461//488 482//488 462//488
f 454//489 475//489 455//489
f 469//490 490//490 470//490
f 462//491 483//491 463//491
f 455//492 476//492 456//492
f 470//493 491//493 471//493
f 463//494 484//494 464//494
f 457//495 476//495 477//495
f 472//496 491//496 492//496
f 465//497 484//497 485//497
f 458//498 477//498 478//498
f 473//499 492//499 493//499
f 466//500 485//500 486//500
f 459//501 478//501 479//501
f 392//502 473//502 493//502
f 466//503 487//503 467//503
f 459//504 480//504 460//504
f 481//505 502//505 482//505
f 474//506 495//506 475//506
f 489//507 510//507 490//507
f 482//508 503//508 483//508
f 475//509 496//509 476//509
f 490//510 511//510 491//510
f 483//511 504//511 484//511
f 477//512 496//512 497//512
f 492//513 511//513 512//513
f 485//514 504//514 505//514
f 478//515 497//515 498//515
f 493//516 512//516 513//516
f 486//517 505//517 506//517
f 479//518 498//518 499//518
f 392//519 493//519 513//519
f 486//520 507//520 487//520
f 479//521 500//521 480//521
f 488//522 507//522 508//522
f 481//523 500//523 501//523
f 474//524 393//524 494//524
f 488//525 509//525 489//525
f 495//526 516//526 496//526
f 510//527 531//527 511//527
f 503//528 524//528 504//528
f 497//529 516//529 517//529
f 512//530 531//530 532//530
f 505//531 524//531 525//531
f 498//532 517//532 518//532
f 513//533 532//533 533//533
f 506//534 525//534 526//534
f 499//535 518//535 519//535
f 392//536 513//536 533//536
f 506//537 527//537 507//537
f 499//538 520//538 500//538
f 508//539 527//539 528//539
f 501//540 520//540 521//540
f 494//541 393//541 514//541
f 508//542 529//542 509//542
f 501//543 522//543 502//543
f 494//544 515//544 495//544
f 509//545 530//545 510//545
f 502//546 523//546 503//546
f 532//547 551//547 552//547
f 525//548 544//548 545//548
f 517//549 538//549 518//549
f 533//550 552//550 553//550
f 526//551 545//551 546//551
f 519//552 538//552 539//552
f 392//553 533//553 553//553
f 526//554 547//554 527//554
f 519//555 540//555 520//555
f 528//556 547//556 548//556
f 521//557 540//557 541//557
f 514//558 393//558 534//558
f 528//559 549//559 529//559
f 521//560 542//560 522//560
f 514//561 535//561 515//561
f 529//562 550//562 530//562
f 522//563 543//563 523//563
f 515//564 536//564 516//564
f 530//565 551//565 531//565
f 523//566 544//566 524//566
f 517//567 536//567 537//567
f 546//568 565//568 566//568
f 539//569 558//569 559//569
f 392//570 553//570 573//570
f 546//571 567//571 547//571
f 539//572 560//572 540//572
f 548//573 567//573 568//573
f 541//574 560//574 561//574
f 534//575 393//575 554//575
f 548//576 569//576 549//576
f 541//577 562//577 542//577
f 534//578 555//578 535//578
f 550//579 569//579 570//579
f 542//580 563//580 543//580
f 535//581 556//581 536//581
f 551//582 570//582 571//582
f 543//583 564//583 544//583
f 536//584 557//584 537//584
f 552//585 571//585 572//585
f 545//586 564//586 565//586
f 537//587 558//587 538//587
f 553//588 572//588 573//588
f 559//589 580//589 560//589
f 568//590 587//590 588//590
f 561//591 580//591 581//591
f 554//592 393//592 574//592
f 568//593 589//593 569//593
f 561//594 582//594 562//594
f 554//595 575//595 555//595
f 570//596 589//596 590//596
f 562//597 583//597 563//597
f 555//598 576//598 556//598
f 570//599 591//599 571//599
f 563//600 584//600 564//600
f 557//601 576//601 577//601
f 572//602 591//602 592//602
f 565//603 584//603 585//603
f 557//604 578//604 558//604
f 573//605 592//605 593//605
f 566//606 585//606 586//606
f 559//607 578//607 579//607
f 392//608 573//608 593//608
f 566//609 587//609 567//609
f 574//610 393//610 594//610
f 588//611 609//611 589//611
f 581//612 602//612 582//612
f 574//613 595//613 575//613
f 590//614 609//614 610//614
f 582//615 603//615 583//615
f 575//616 596//616 576//616
f 590//617 611//617 591//617
f 583//618 604//618 584//618
f 576//619 597//619 577//619
f 592//620 611//620 612//620
f 585//621 604//621 605//621
f 577//622 598//622 578//622
f 593//623 612//623 613//623
f 586//624 605//624 606//624
f 579//625 598//625 599//625
f 392//626 593//626 613//626
f 586//627 607//627 587//627
f 579//628 600//628 580//628
f 588//629 607//629 608//629
f 581//630 600//630 601//630
f 602//631 623//631 603//631
f 595//632 616//632 596//632
f 610//633 631//633 611//633
f 603//634 624//634 604//634
f 597//635 616//635 617//635
f 612//636 631//636 632//636
f 605//637 624//637 625//637
f 598//638 617//638 618//638
f 613//639 632//639 633//639
f 606//640 625//640 626//640
f 599//641 618//641 619//641
f 392//642 613//642 633//642
f 606//643 627//643 607//643
f 599//644 620//644 600//644
f 608//645 627//645 628//645
f 600//646 621//646 601//646
f 594//647 393//647 614//647
f 608//648 629//648 609//648
f 601//649 622//649 602//649
f 594//650 615//650 595//650
f 609//651 630//651 610//651
f 617//652 2//652 635//652
f 631//653 11//653 632//653
f 624//654 6//654 625//654
f 618//655 635//655 636//655
f 632//656 642//656 633//656
f 625//657 7//657 626//657
f 619//658 636//658 3//658
f 392//659 633//659 642//659
f 626//660 640//660 627//660
f 620//661 3//661 637//661
f 627//662 8//662 628//662
f 621//663 637//663 4//663
f 614//664 393//664 1//664
f 628//665 641//665 629//665
f 622//666 4//666 638//666
f 615//667 1//667 634//667
f 629//668 9//668 630//668
f 622//669 639//669 623//669
f 616//670 634//670 2//670
f 630//671 10//671 631//671
f 624//672 639//672 5//672
f 636//1 635//1 15//1
f 11//2 30//2 31//2
f 7//3 6//3 23//3
f 3//4 636//4 16//4
f 640//6 7//6 24//6
f 637//7 3//7 17//7
f 640//8 25//8 26//8
f 637//9 18//9 19//9
f 8//11 26//11 27//11
f 638//12 4//12 19//12
f 634//13 1//13 12//13
f 641//14 27//14 28//14
f 638//15 20//15 21//15
f 2//16 634//16 13//16
f 10//17 9//17 28//17
f 639//18 21//18 22//18
f 635//19 2//19 14//19
f 11//20 10//20 29//20
f 6//21 5//21 22//21
f 25//23 24//23 44//23
f 17//24 37//24 38//24
f 25//25 45//25 46//25
f 18//26 38//26 39//26
f 26//28 46//28 47//28
f 19//29 39//29 40//29
f 12//30 32//30 33//30
f 28//31 27//31 47//31
f 20//32 40//32 41//32
f 13//33 33//33 34//33
f 29//34 28//34 48//34
f 21//35 41//35 42//35
f 14//36 34//36 35//36
f 30//37 29//37 49//37
f 23//38 22//38 42//38
f 15//39 35//39 36//39
f 31//40 30//40 50//40
f 24//41 23//41 43//41
f 16//42 36//42 37//42
f 46//43 45//43 65//43
f 39//44 38//44 58//44
f 47//46 46//46 66//46
f 39//47 59//47 60//47
f 33//48 32//48 52//48
f 48//49 47//49 67//49
f 40//50 60//50 61//50
f 34//51 33//51 53//51
f 48//52 68//52 69//52
f 41//53 61//53 62//53
f 34//54 54//54 55//54
f 49//55 69//55 70//55
f 43//56 42//56 62//56
f 35//57 55//57 56//57
f 50//58 70//58 71//58
f 44//59 43//59 63//59
f 36//60 56//60 57//60
f 44//62 64//62 65//62
f 37//63 57//63 58//63
f 59//64 79//64 80//64
f 52//65 72//65 73//65
f 68//66 67//66 87//66
f 61//67 60//67 80//67
f 53//68 73//68 74//68
f 69//69 68//69 88//69
f 61//70 81//70 82//70
f 54//71 74//71 75//71
f 70//72 69//72 89//72
f 62//73 82//73 83//73
f 55//74 75//74 76//74
f 71//75 70//75 90//75
f 64//76 63//76 83//76
f 57//77 56//77 76//77
f 64//79 84//79 85//79
f 57//80 77//80 78//80
f 66//81 65//81 85//81
f 59//82 58//82 78//82
f 66//84 86//84 87//84
f 73//85 93//85 94//85
f 88//86 108//86 109//86
f 81//87 101//87 102//87
f 75//88 74//88 94//88
f 90//89 89//89 109//89
f 82//90 102//90 103//90
f 75//91 95//91 96//91
f 91//92 90//92 110//92
f 84//93 83//93 103//93
f 77//94 76//94 96//94
f 84//96 104//96 105//96
f 77//97 97//97 98//97
f 86//98 85//98 105//98
f 79//99 78//99 98//99
f 86//101 106//101 107//101
f 79//102 99//102 100//102
f 72//103 92//103 93//103
f 88//104 87//104 107//104
f 81//105 80//105 100//105
f 102//106 122//106 123//106
f 95//107 115//107 116//107
f 110//108 130//108 131//108
f 104//109 103//109 123//109
f 97//110 96//110 116//110
f 104//112 124//112 125//112
f 97//113 117//113 118//113
f 106//114 105//114 125//114
f 99//115 98//115 118//115
f 106//117 126//117 127//117
f 99//118 119//118 120//118
f 92//119 112//119 113//119
f 108//120 107//120 127//120
f 101//121 100//121 120//121
f 93//122 113//122 114//122
f 108//123 128//123 129//123
f 101//124 121//124 122//124
f 95//125 94//125 114//125
f 110//126 109//126 129//126
f 117//127 116//127 136//127
f 124//129 144//129 145//129
f 117//130 137//130 138//130
f 126//131 125//131 145//131
f 119//132 118//132 138//132
f 126//134 146//134 147//134
f 119//135 139//135 140//135
f 112//136 132//136 133//136
f 127//137 147//137 148//137
f 121//138 120//138 140//138
f 113//139 133//139 134//139
f 128//140 148//140 149//140
f 121//141 141//141 142//141
f 115//142 114//142 134//142
f 130//143 129//143 149//143
f 122//144 142//144 143//144
f 116//145 115//145 135//145
f 130//146 150//146 151//146
f 124//147 123//147 143//147
f 146//148 145//148 165//148
f 139//149 138//149 158//149
f 146//151 166//151 167//151
f 139//152 159//152 160//152
f 132//153 152//153 153//153
f 147//154 167//154 168//154
f 141//155 140//155 160//155
f 133//156 153//156 154//156
f 148//157 168//157 169//157
f 141//158 161//158 162//158
f 135//159 134//159 154//159
f 150//160 149//160 169//160
f 142//161 162//161 163//161
f 136//162 135//162 155//162
f 151//163 150//163 170//163
f 144//164 143//164 163//164
f 137//165 136//165 156//165
f 144//167 164//167 165//167
f 137//168 157//168 158//168
f 166//169 186//169 187//169
f 159//170 179//170 180//170
f 153//171 152//171 172//171
f 167//172 187//172 188//172
f 161//173 160//173 180//173
f 154//174 153//174 173//174
f 168//175 188//175 189//175
f 161//176 181//176 182//176
f 155//177 154//177 174//177
f 169//178 189//178 190//178
f 162//179 182//179 183//179
f 156//180 155//180 175//180
f 170//181 190//181 191//181
f 164//182 163//182 183//182
f 157//183 156//183 176//183
f 164//185 184//185 185//185
f 157//186 177//186 178//186
f 166//187 165//187 185//187
f 159//188 158//188 178//188
f 181//190 180//190 200//190
f 173//191 193//191 194//191
f 188//192 208//192 209//192
f 181//193 201//193 202//193
f 175//194 174//194 194//194
f 190//195 189//195 209//195
f 182//196 202//196 203//196
f 176//197 175//197 195//197
f 191//198 190//198 210//198
f 184//199 183//199 203//199
f 176//200 196//200 197//200
f 184//202 204//202 205//202
f 177//203 197//203 198//203
f 186//204 185//204 205//204
f 179//205 178//205 198//205
f 186//207 206//207 207//207
f 179//208 199//208 200//208
f 172//209 192//209 193//209
f 187//210 207//210 208//210
f 195//211 194//211 214//211
f 210//212 209//212 229//212
f 202//213 222//213 223//213
f 195//214 215//214 216//214
f 211//673 210//673 230//673
f 204//216 203//216 223//216
f 196//217 216//217 217//217
f 204//219 224//219 225//219
f 197//220 217//220 218//220
f 206//221 205//221 225//221
f 199//222 198//222 218//222
f 207//224 206//224 226//224
f 199//225 219//225 220//225
f 192//674 212//674 213//674
f 207//227 227//227 228//227
f 201//228 200//228 220//228
f 193//229 213//229 214//229
f 208//230 228//230 229//230
f 201//231 221//231 222//231
f 224//232 223//232 243//232
f 217//233 216//233 236//233
f 224//235 244//235 245//235
f 217//236 237//236 238//236
f 226//237 225//237 245//237
f 219//238 218//238 238//238
f 226//240 246//240 247//240
f 219//241 239//241 240//241
f 212//242 232//242 233//242
f 228//243 227//243 247//243
f 221//244 220//244 240//244
f 213//245 233//245 234//245
f 228//246 248//246 249//246
f 221//247 241//247 242//247
f 215//248 214//248 234//248
f 230//249 229//249 249//249
f 222//250 242//250 243//250
f 215//251 235//251 236//251
f 231//252 230//252 250//252
f 237//253 257//253 258//253
f 246//254 245//254 265//254
f 239//255 238//255 258//255
f 246//257 266//257 267//257
f 239//258 259//258 260//258
f 232//259 252//259 253//259
f 248//260 247//260 267//260
f 241//261 240//261 260//261
f 233//262 253//262 254//262
f 248//263 268//263 269//263
f 241//264 261//264 262//264
f 235//265 234//265 254//265
f 250//266 249//266 269//266
f 242//267 262//267 263//267
f 235//268 255//268 256//268
f 251//269 250//269 270//269
f 244//270 243//270 263//270
f 237//271 236//271 256//271
f 244//273 264//273 265//273
f 266//275 286//275 287//275
f 259//276 279//276 280//276
f 252//277 272//277 273//277
f 268//278 267//278 287//278
f 260//279 280//279 281//279
f 253//280 273//280 274//280
f 268//281 288//281 289//281
f 261//282 281//282 282//282
f 255//283 254//283 274//283
f 270//284 269//284 289//284
f 263//285 262//285 282//285
f 255//286 275//286 276//286
f 271//287 270//287 290//287
f 264//288 263//288 283//288
f 257//289 256//289 276//289
f 264//291 284//291 285//291
f 257//292 277//292 278//292
f 266//293 265//293 285//293
f 259//294 258//294 278//294
f 288//295 287//295 307//295
f 280//296 300//296 301//296
f 273//297 293//297 294//297
f 288//298 308//298 309//298
f 281//299 301//299 302//299
f 275//300 274//300 294//300
f 290//301 289//301 309//301
f 283//302 282//302 302//302
f 275//303 295//303 296//303
f 290//304 310//304 311//304
f 284//305 283//305 303//305
f 277//306 276//306 296//306
f 284//308 304//308 305//308
f 277//309 297//309 298//309
f 286//310 285//310 305//310
f 279//311 278//311 298//311
f 286//313 306//313 307//313
f 279//314 299//314 300//314
f 272//315 292//315 293//315
f 301//316 321//316 322//316
f 295//317 294//317 314//317
f 310//318 309//318 329//318
f 303//319 302//319 322//319
f 295//320 315//320 316//320
f 311//321 310//321 330//321
f 304//322 303//322 323//322
f 297//323 296//323 316//323
f 304//325 324//325 325//325
f 297//326 317//326 318//326
f 306//327 305//327 325//327
f 299//328 298//328 318//328
f 306//330 326//330 327//330
f 299//331 319//331 320//331
f 292//332 312//332 313//332
f 308//333 307//333 327//333
f 300//334 320//334 321//334
f 293//335 313//335 314//335
f 308//336 328//336 329//336
f 315//337 335//337 336//337
f 330//338 350//338 351//338
f 324//339 323//339 343//339
f 317//340 316//340 336//340
f 324//342 344//342 345//342
f 317//343 337//343 338//343
f 326//344 325//344 345//344
f 319//345 318//345 338//345
f 326//347 346//347 347//347
f 319//348 339//348 340//348
f 313//349 312//349 332//349
f 328//350 327//350 347//350
f 320//351 340//351 341//351
f 313//352 333//352 334//352
f 328//353 348//353 349//353
f 321//354 341//354 342//354
f 315//355 314//355 334//355
f 329//356 349//356 350//356
f 323//357 322//357 342//357
f 344//358 364//358 365//358
f 337//359 357//359 358//359
f 346//360 345//360 365//360
f 339//361 338//361 358//361
f 346//363 366//363 367//363
f 339//364 359//364 360//364
f 332//365 352//365 353//365
f 348//366 347//366 367//366
f 340//367 360//367 361//367
f 333//368 353//368 354//368
f 348//369 368//369 369//369
f 341//370 361//370 362//370
f 335//371 334//371 354//371
f 350//372 349//372 369//372
f 343//373 342//373 362//373
f 335//374 355//374 356//374
f 351//375 350//375 370//375
f 344//376 343//376 363//376
f 337//377 336//377 356//377
f 359//379 358//379 378//379
f 366//381 386//381 387//381
f 359//382 379//382 380//382
f 352//383 372//383 373//383
f 368//384 367//384 387//384
f 360//385 380//385 381//385
f 353//386 373//386 374//386
f 368//387 388//387 389//387
f 361//388 381//388 382//388
f 355//389 354//389 374//389
f 370//390 369//390 389//390
f 363//391 362//391 382//391
f 355//392 375//392 376//392
f 371//393 370//393 390//393
f 364//394 363//394 383//394
f 357//395 356//395 376//395
f 364//397 384//397 385//397
f 357//398 377//398 378//398
f 366//399 365//399 385//399
f 372//400 394//400 395//400
f 388//401 387//401 409//401
f 380//402 402//402 403//402
f 373//403 395//403 396//403
f 389//404 388//404 410//404
f 381//405 403//405 404//405
f 374//406 396//406 397//406
f 390//407 389//407 411//407
f 383//408 382//408 404//408
f 375//409 397//409 398//409
f 391//410 390//410 412//410
f 384//411 383//411 405//411
f 377//412 376//412 398//412
f 384//414 406//414 407//414
f 377//415 399//415 400//415
f 386//416 385//416 407//416
f 379//417 378//417 400//417
f 386//419 408//419 409//419
f 379//420 401//420 402//420
f 410//421 430//421 431//421
f 403//422 423//422 424//422
f 397//423 396//423 416//423
f 412//424 411//424 431//424
f 405//425 404//425 424//425
f 397//426 417//426 418//426
f 412//427 432//427 433//427
f 406//428 405//428 425//428
f 399//429 398//429 418//429
f 406//431 426//431 427//431
f 399//432 419//432 420//432
f 408//433 407//433 427//433
f 401//434 400//434 420//434
f 408//436 428//436 429//436
f 401//437 421//437 422//437
f 395//438 394//438 414//438
f 410//439 409//439 429//439
f 402//440 422//440 423//440
f 395//441 415//441 416//441
f 425//442 424//442 444//442
f 417//443 437//443 438//443
f 433//444 432//444 452//444
f 426//445 425//445 445//445
f 419//446 418//446 438//446
f 426//448 446//448 447//448
f 419//449 439//449 440//449
f 428//450 427//450 447//450
f 420//451 440//451 441//451
f 428//453 448//453 449//453
f 421//454 441//454 442//454
f 414//455 434//455 435//455
f 430//456 429//456 449//456
f 422//457 442//457 443//457
f 415//458 435//458 436//458
f 431//459 430//459 450//459
f 423//460 443//460 444//460
f 416//461 436//461 437//461
f 432//462 431//462 451//462
f 439//463 438//463 458//463
f 446//465 466//465 467//465
f 439//466 459//466 460//466
f 448//467 447//467 467//467
f 441//468 440//468 460//468
f 448//470 468//470 469//470
f 441//471 461//471 462//471
f 434//472 454//472 455//472
f 449//473 469//473 470//473
f 442//474 462//474 463//474
f 435//475 455//475 456//475
f 450//476 470//476 471//476
f 443//477 463//477 464//477
f 437//478 436//478 456//478
f 452//479 451//479 471//479
f 445//480 444//480 464//480
f 438//481 437//481 457//481
f 453//482 452//482 472//482
f 446//483 445//483 465//483
f 468//484 467//484 487//484
f 461//485 460//485 480//485
f 468//487 488//487 489//487
f 461//488 481//488 482//488
f 454//489 474//489 475//489
f 469//490 489//490 490//490
f 462//491 482//491 483//491
f 455//492 475//492 476//492
f 470//493 490//493 491//493
f 463//494 483//494 484//494
f 457//495 456//495 476//495
f 472//496 471//496 491//496
f 465//497 464//497 484//497
f 458//498 457//498 477//498
f 473//499 472//499 492//499
f 466//500 465//500 485//500
f 459//501 458//501 478//501
f 466//503 486//503 487//503
f 459//504 479//504 480//504
f 481//505 501//505 502//505
f 474//506 494//506 495//506
f 489//507 509//507 510//507
f 482//508 502//508 503//508
f 475//509 495//509 496//509
f 490//510 510//510 511//510
f 483//511 503//511 504//511
f 477//512 476//512 496//512
f 492//513 491//513 511//513
f 485//514 484//514 504//514
f 478//515 477//515 497//515
f 493//516 492//516 512//516
f 486//517 485//517 505//517
f 479//518 478//518 498//518
f 486//520 506//520 507//520
f 479//521 499//521 500//521
f 488//522 487//522 507//522
f 481//523 480//523 500//523
f 488//525 508//525 509//525
f 495//526 515//526 516//526
f 510//527 530//527 531//527
f 503//528 523//528 524//528
f 497//529 496//529 516//529
f 512//530 511//530 531//530
f 505//531 504//531 524//531
f 498//532 497//532 517//532
f 513//533 512//533 532//533
f 506//534 505//534 525//534
f 499//535 498//535 518//535
f 506//537 526//537 527//537
f 499//538 519//538 520//538
f 508//539 507//539 527//539
f 501//540 500//540 520//540
f 508//542 528//542 529//542
f 501//543 521//543 522//543
f 494//544 514//544 515//544
f 509//545 529//545 530//545
f 502//546 522//546 523//546
f 532//547 531//547 551//547
f 525//548 524//548 544//548
f 517//549 537//549 538//549
f 533//550 532//550 552//550
f 526//551 525//551 545//551
f 519//552 518//552 538//552
f 526//554 546//554 547//554
f 519//555 539//555 540//555
f 528//556 527//556 547//556
f 521//557 520//557 540//557
f 528//559 548//559 549//559
f 521//560 541//560 542//560
f 514//561 534//561 535//561
f 529//562 549//562 550//562
f 522//563 542//563 543//563
f 515//564 535//564 536//564
f 530//565 550//565 551//565
f 523//566 543//566 544//566
f 517//567 516//567 536//567
f 546//568 545//568 565//568
f 539//569 538//569 558//569
f 546//571 566//571 567//571
f 539//572 559//572 560//572
f 548//573 547//573 567//573
f 541//574 540//574 560//574
f 548//576 568//576 569//576
f 541//577 561//577 562//577
f 534//578 554//578 555//578
f 550//579 549//579 569//579
f 542//580 562//580 563//580
f 535//581 555//581 556//581
f 551//582 550//582 570//582
f 543//583 563//583 564//583
f 536//584 556//584 557//584
f 552//585 551//585 571//585
f 545//586 544//586 564//586
f 537//587 557//587 558//587
f 553//588 552//588 572//588
f 559//589 579//589 580//589
f 568//590 567//590 587//590
f 561//591 560//591 580//591
f 568//593 588//593 589//593
f 561//594 581//594 582//594
f 554//595 574//595 575//595
f 570//596 569//596 589//596
f 562//597 582//597 583//597
f 555//598 575//598 576//598
f 570//599 590//599 591//599
f 563//600 583//600 584//600
f 557//601 556//601 576//601
f 572//602 571//602 591//602
f 565//603 564//603 584//603
f 557//604 577//604 578//604
f 573//605 572//605 592//605
f 566//606 565//606 585//606
f 559//607 558//607 578//607
f 566//609 586//609 587//609
f 588//611 608//611 609//611
f 581//612 601//612 602//612
f 574//613 594//613 595//613
f 590//614 589//614 609//614
f 582//615 602//615 603//615
f 575//616 595//616 596//616
f 590//617 610//617 611//617
f 583//618 603//618 604//618
f 576//619 596//619 597//619
f 592//620 591//620 611//620
f 585//621 584//621 604//621
f 577//622 597//622 598//622
f 593//623 592//623 612//623
f 586//624 585//624 605//624
f 579//625 578//625 598//625
f 586//627 606//627 607//627
f 579//628 599//628 600//628
f 588//629 587//629 607//629
f 581//630 580//630 600//630
f 602//631 622//631 623//631
f 595//632 615//632 616//632
f 610//633 630//633 631//633
f 603//634 623//634 624//634
f 597//635 596//635 616//635
f 612//636 611//636 631//636
f 605//637 604//637 624//637
f 598//638 597//638 617//638
f 613//639 612//639 632//639
f 606//640 605//640 625//640
f 599//641 598//641 618//641
f 606//643 626//643 627//643
f 599//644 619//644 620//644
f 608//645 607//645 627//645
f 600//646 620//646 621//646
f 608//648 628//648 629//648
f 601//649 621//649 622//649
f 594//650 614//650 615//650
f 609//651 629//651 630//651
f 617//652 616//652 2//652
f 631//653 10//653 11//653
f 624//654 5//654 6//654
f 618//655 617//655 635//655
f 632//656 11//656 642//656
f 625//657 6//657 7//657
f 619//658 618//658 636//658
f 626//660 7//660 640//660
f 620//661 619//661 3//661
f 627//662 640//662 8//662
f 621//663 620//663 637//663
f 628//665 8//665 641//665
f 622//666 621//666 4//666
f 615//667 614//667 1//667
f 629//668 641//668 9//668
f 622//669 638//669 639//669
f 616//670 615//670 634//670
f 630//671 9//671 10//671
f 624//672 623//672 639//672
